<svg viewBox="0 0 330 200" xmlns="http://www.w3.org/2000/svg"><g><g><g><g><g><line x1="49.98400115966797" y1="178.61999988555908" x2="44.98400115966797" y2="178.61999988555908" style="visibility: inherit;" fill="rgb(0, 0, 0)" stroke="rgb(204, 204, 204)" stroke-width="1px"></line><line x1="49.98400115966797" y1="164.87999989436224" x2="44.98400115966797" y2="164.87999989436224" style="visibility: inherit;" fill="rgb(0, 0, 0)" stroke="rgb(204, 204, 204)" stroke-width="1px"></line><line x1="49.98400115966797" y1="151.13999990316537" x2="44.98400115966797" y2="151.13999990316537" style="visibility: inherit;" fill="rgb(0, 0, 0)" stroke="rgb(204, 204, 204)" stroke-width="1px"></line><line x1="49.98400115966797" y1="137.3999999119685" x2="44.98400115966797" y2="137.3999999119685" style="visibility: inherit;" fill="rgb(0, 0, 0)" stroke="rgb(204, 204, 204)" stroke-width="1px"></line><line x1="49.98400115966797" y1="123.65999992077167" x2="44.98400115966797" y2="123.65999992077167" style="visibility: inherit;" fill="rgb(0, 0, 0)" stroke="rgb(204, 204, 204)" stroke-width="1px"></line><line x1="49.98400115966797" y1="109.91999992957483" x2="44.98400115966797" y2="109.91999992957483" style="visibility: inherit;" fill="rgb(0, 0, 0)" stroke="rgb(204, 204, 204)" stroke-width="1px"></line><line x1="49.98400115966797" y1="96.17999993837797" x2="44.98400115966797" y2="96.17999993837797" style="visibility: inherit;" fill="rgb(0, 0, 0)" stroke="rgb(204, 204, 204)" stroke-width="1px"></line><line x1="49.98400115966797" y1="82.43999994718112" x2="44.98400115966797" y2="82.43999994718112" style="visibility: inherit;" fill="rgb(0, 0, 0)" stroke="rgb(204, 204, 204)" stroke-width="1px"></line><line x1="49.98400115966797" y1="68.69999995598428" x2="44.98400115966797" y2="68.69999995598428" style="visibility: inherit;" fill="rgb(0, 0, 0)" stroke="rgb(204, 204, 204)" stroke-width="1px"></line><line x1="49.98400115966797" y1="54.959999964787414" x2="44.98400115966797" y2="54.959999964787414" style="visibility: inherit;" fill="rgb(0, 0, 0)" stroke="rgb(204, 204, 204)" stroke-width="1px"></line><line x1="49.98400115966797" y1="41.219999973590575" x2="44.98400115966797" y2="41.219999973590575" style="visibility: inherit;" fill="rgb(0, 0, 0)" stroke="rgb(204, 204, 204)" stroke-width="1px"></line><line x1="49.98400115966797" y1="27.479999982393707" x2="44.98400115966797" y2="27.479999982393707" style="visibility: inherit;" fill="rgb(0, 0, 0)" stroke="rgb(204, 204, 204)" stroke-width="1px"></line><line x1="49.98400115966797" y1="13.73999999119684" x2="44.98400115966797" y2="13.73999999119684" style="visibility: inherit;" fill="rgb(0, 0, 0)" stroke="rgb(204, 204, 204)" stroke-width="1px"></line><line x1="49.98400115966797" y1="0" x2="44.98400115966797" y2="0" style="visibility: inherit;" fill="rgb(0, 0, 0)" stroke="rgb(204, 204, 204)" stroke-width="1px"></line></g><g transform="translate(39.98400115966797, 0)"><text style="text-anchor: end; visibility: hidden; font-family: &quot;Helvetica Neue&quot;, sans-serif; font-size: 12px; font-weight: 200;" x="0" y="178.61999988555908" dx="0em" dy="0.3em" fill="rgb(50, 49, 63)" stroke="none" stroke-width="1px">-0.1</text><text style="text-anchor: end; visibility: inherit; font-family: &quot;Helvetica Neue&quot;, sans-serif; font-size: 12px; font-weight: 200;" x="0" y="164.87999989436224" dx="0em" dy="0.3em" fill="rgb(50, 49, 63)" stroke="none" stroke-width="1px">0</text><text style="text-anchor: end; visibility: hidden; font-family: &quot;Helvetica Neue&quot;, sans-serif; font-size: 12px; font-weight: 200;" x="0" y="151.13999990316537" dx="0em" dy="0.3em" fill="rgb(50, 49, 63)" stroke="none" stroke-width="1px">0.1</text><text style="text-anchor: end; visibility: inherit; font-family: &quot;Helvetica Neue&quot;, sans-serif; font-size: 12px; font-weight: 200;" x="0" y="137.3999999119685" dx="0em" dy="0.3em" fill="rgb(50, 49, 63)" stroke="none" stroke-width="1px">0.2</text><text style="text-anchor: end; visibility: hidden; font-family: &quot;Helvetica Neue&quot;, sans-serif; font-size: 12px; font-weight: 200;" x="0" y="123.65999992077167" dx="0em" dy="0.3em" fill="rgb(50, 49, 63)" stroke="none" stroke-width="1px">0.3</text><text style="text-anchor: end; visibility: inherit; font-family: &quot;Helvetica Neue&quot;, sans-serif; font-size: 12px; font-weight: 200;" x="0" y="109.91999992957483" dx="0em" dy="0.3em" fill="rgb(50, 49, 63)" stroke="none" stroke-width="1px">0.4</text><text style="text-anchor: end; visibility: hidden; font-family: &quot;Helvetica Neue&quot;, sans-serif; font-size: 12px; font-weight: 200;" x="0" y="96.17999993837797" dx="0em" dy="0.3em" fill="rgb(50, 49, 63)" stroke="none" stroke-width="1px">0.5</text><text style="text-anchor: end; visibility: inherit; font-family: &quot;Helvetica Neue&quot;, sans-serif; font-size: 12px; font-weight: 200;" x="0" y="82.43999994718112" dx="0em" dy="0.3em" fill="rgb(50, 49, 63)" stroke="none" stroke-width="1px">0.6</text><text style="text-anchor: end; visibility: hidden; font-family: &quot;Helvetica Neue&quot;, sans-serif; font-size: 12px; font-weight: 200;" x="0" y="68.69999995598428" dx="0em" dy="0.3em" fill="rgb(50, 49, 63)" stroke="none" stroke-width="1px">0.7</text><text style="text-anchor: end; visibility: inherit; font-family: &quot;Helvetica Neue&quot;, sans-serif; font-size: 12px; font-weight: 200;" x="0" y="54.959999964787414" dx="0em" dy="0.3em" fill="rgb(50, 49, 63)" stroke="none" stroke-width="1px">0.8</text><text style="text-anchor: end; visibility: hidden; font-family: &quot;Helvetica Neue&quot;, sans-serif; font-size: 12px; font-weight: 200;" x="0" y="41.219999973590575" dx="0em" dy="0.3em" fill="rgb(50, 49, 63)" stroke="none" stroke-width="1px">0.9</text><text style="text-anchor: end; visibility: inherit; font-family: &quot;Helvetica Neue&quot;, sans-serif; font-size: 12px; font-weight: 200;" x="0" y="27.479999982393707" dx="0em" dy="0.3em" fill="rgb(50, 49, 63)" stroke="none" stroke-width="1px">1</text><text style="text-anchor: end; visibility: hidden; font-family: &quot;Helvetica Neue&quot;, sans-serif; font-size: 12px; font-weight: 200;" x="0" y="13.73999999119684" dx="0em" dy="0.3em" fill="rgb(50, 49, 63)" stroke="none" stroke-width="1px">1.1</text><text style="text-anchor: end; visibility: hidden; font-family: &quot;Helvetica Neue&quot;, sans-serif; font-size: 12px; font-weight: 200;" x="0" y="0" dx="0em" dy="0.3em" fill="rgb(50, 49, 63)" stroke="none" stroke-width="1px">1.2</text></g><line x1="49.98400115966797" y1="0" x2="49.98400115966797" y2="178.61999988555908" fill="rgb(0, 0, 0)" stroke="rgb(204, 204, 204)" stroke-width="1px"></line></g></g><g transform="translate(49, 0)" clip-path="url(#clip_0)"><clipPath id="clip_0"><rect width="280" height="178"></rect></clipPath><g><g><g><line x1="0" y1="0" x2="0" y2="178.61999988555908" fill="rgb(0, 0, 0)" stroke="rgb(60, 60, 60)" stroke-width="1px" opacity="0.25"></line><line x1="23.334666570027668" y1="0" x2="23.334666570027668" y2="178.61999988555908" fill="rgb(0, 0, 0)" stroke="rgb(60, 60, 60)" stroke-width="1px" opacity="0.25"></line><line x1="46.669333140055336" y1="0" x2="46.669333140055336" y2="178.61999988555908" fill="rgb(0, 0, 0)" stroke="rgb(60, 60, 60)" stroke-width="1px" opacity="0.25"></line><line x1="70.00399971008301" y1="0" x2="70.00399971008301" y2="178.61999988555908" fill="rgb(0, 0, 0)" stroke="rgb(60, 60, 60)" stroke-width="1px" opacity="0.25"></line><line x1="93.33866628011067" y1="0" x2="93.33866628011067" y2="178.61999988555908" fill="rgb(0, 0, 0)" stroke="rgb(60, 60, 60)" stroke-width="1px" opacity="0.25"></line><line x1="116.67333285013835" y1="0" x2="116.67333285013835" y2="178.61999988555908" fill="rgb(0, 0, 0)" stroke="rgb(60, 60, 60)" stroke-width="1px" opacity="0.25"></line><line x1="140.00799942016602" y1="0" x2="140.00799942016602" y2="178.61999988555908" fill="rgb(0, 0, 0)" stroke="rgb(60, 60, 60)" stroke-width="1px" opacity="0.25"></line><line x1="163.3426659901937" y1="0" x2="163.3426659901937" y2="178.61999988555908" fill="rgb(0, 0, 0)" stroke="rgb(60, 60, 60)" stroke-width="1px" opacity="0.25"></line><line x1="186.67733256022134" y1="0" x2="186.67733256022134" y2="178.61999988555908" fill="rgb(0, 0, 0)" stroke="rgb(60, 60, 60)" stroke-width="1px" opacity="0.25"></line><line x1="210.01199913024902" y1="0" x2="210.01199913024902" y2="178.61999988555908" fill="rgb(0, 0, 0)" stroke="rgb(60, 60, 60)" stroke-width="1px" opacity="0.25"></line><line x1="233.3466657002767" y1="0" x2="233.3466657002767" y2="178.61999988555908" fill="rgb(0, 0, 0)" stroke="rgb(60, 60, 60)" stroke-width="1px" opacity="0.25"></line><line x1="256.6813322703043" y1="0" x2="256.6813322703043" y2="178.61999988555908" fill="rgb(0, 0, 0)" stroke="rgb(60, 60, 60)" stroke-width="1px" opacity="0.25"></line><line x1="280.01599884033203" y1="0" x2="280.01599884033203" y2="178.61999988555908" fill="rgb(0, 0, 0)" stroke="rgb(60, 60, 60)" stroke-width="1px" opacity="0.25"></line></g><g><line x1="0" y1="178.61999988555908" x2="280.01599884033203" y2="178.61999988555908" fill="rgb(0, 0, 0)" stroke="rgb(60, 60, 60)" stroke-width="1px" opacity="0.25"></line><line x1="0" y1="164.87999989436224" x2="280.01599884033203" y2="164.87999989436224" fill="rgb(0, 0, 0)" stroke="rgb(60, 60, 60)" stroke-width="1px" opacity="0.25"></line><line x1="0" y1="151.13999990316537" x2="280.01599884033203" y2="151.13999990316537" fill="rgb(0, 0, 0)" stroke="rgb(60, 60, 60)" stroke-width="1px" opacity="0.25"></line><line x1="0" y1="137.3999999119685" x2="280.01599884033203" y2="137.3999999119685" fill="rgb(0, 0, 0)" stroke="rgb(60, 60, 60)" stroke-width="1px" opacity="0.25"></line><line x1="0" y1="123.65999992077167" x2="280.01599884033203" y2="123.65999992077167" fill="rgb(0, 0, 0)" stroke="rgb(60, 60, 60)" stroke-width="1px" opacity="0.25"></line><line x1="0" y1="109.91999992957483" x2="280.01599884033203" y2="109.91999992957483" fill="rgb(0, 0, 0)" stroke="rgb(60, 60, 60)" stroke-width="1px" opacity="0.25"></line><line x1="0" y1="96.17999993837797" x2="280.01599884033203" y2="96.17999993837797" fill="rgb(0, 0, 0)" stroke="rgb(60, 60, 60)" stroke-width="1px" opacity="0.25"></line><line x1="0" y1="82.43999994718112" x2="280.01599884033203" y2="82.43999994718112" fill="rgb(0, 0, 0)" stroke="rgb(60, 60, 60)" stroke-width="1px" opacity="0.25"></line><line x1="0" y1="68.69999995598428" x2="280.01599884033203" y2="68.69999995598428" fill="rgb(0, 0, 0)" stroke="rgb(60, 60, 60)" stroke-width="1px" opacity="0.25"></line><line x1="0" y1="54.959999964787414" x2="280.01599884033203" y2="54.959999964787414" fill="rgb(0, 0, 0)" stroke="rgb(60, 60, 60)" stroke-width="1px" opacity="0.25"></line><line x1="0" y1="41.219999973590575" x2="280.01599884033203" y2="41.219999973590575" fill="rgb(0, 0, 0)" stroke="rgb(60, 60, 60)" stroke-width="1px" opacity="0.25"></line><line x1="0" y1="27.479999982393707" x2="280.01599884033203" y2="27.479999982393707" fill="rgb(0, 0, 0)" stroke="rgb(60, 60, 60)" stroke-width="1px" opacity="0.25"></line><line x1="0" y1="13.73999999119684" x2="280.01599884033203" y2="13.73999999119684" fill="rgb(0, 0, 0)" stroke="rgb(60, 60, 60)" stroke-width="1px" opacity="0.25"></line><line x1="0" y1="0" x2="280.01599884033203" y2="0" fill="rgb(0, 0, 0)" stroke="rgb(60, 60, 60)" stroke-width="1px" opacity="0.25"></line></g></g></g><g><g><line x1="0" y1="164.87999989436224" x2="280.01599884033203" y2="164.87999989436224" fill="rgb(0, 0, 0)" stroke="rgb(153, 153, 153)" stroke-width="1.5px"></line></g></g><g><g><line x1="23.334666570027668" y1="0" x2="23.334666570027668" y2="178.61999988555908" fill="rgb(0, 0, 0)" stroke="rgb(153, 153, 153)" stroke-width="1.5px"></line></g></g><g><g><g><g><g><path style="fill: none;" stroke="rgb(255, 112, 67)" stroke-width="2px" d="M23.91803323427836,27.479999982393707L24.0347065671285,27.479999982393707L24.50139989852905,27.479999982393707L24.618073231379192,27.479999982393707L24.851419897079467,27.47999998239368L24.968093229929607,27.47999998239368L25.084766562779745,27.479999982393707L25.318113228480023,27.479999982393707L25.43478656133016,27.479999982393707L25.551459894180297,27.479999982393707L25.668133227030435,27.479999982393707L26.13482655843099,27.47999998239368L27.184886554082233,27.47999998239368L27.301559886932374,27.479999982393707L27.53490655263265,27.479999982393707L27.884926551183064,27.479999982393707L28.001599884033205,27.479999982393707L28.23494654973348,27.479999982393707L28.468293215433757,27.479999982393707L28.584966548283894,27.47999998239368L28.818313213984172,27.479999982393707L29.051659879684447,27.47999998239368L29.168333212534588,27.479999982393707L29.518353211085003,27.479999982393707L29.63502654393514,27.47999998239368L29.751699876785278,27.479999982393707L29.86837320963542,27.47999998239368L29.985046542485556,27.47999998239368L30.33506654103597,27.479999982393707L30.45173987388611,27.479999982393707L30.685086539586386,27.479999982393707L30.91843320528666,27.479999982393707L31.0351065381368,27.47999998239368L31.15177987098694,27.479999982393707L31.268453203837076,27.479999982393707L31.61847320238749,27.479999982393707L31.73514653523763,27.47999998239368L31.85181986808777,27.47999998239368L31.968493200937907,27.479999982393707L32.20183986663819,27.479999982393707L32.551859865188604,27.479999982393707L33.13522652943929,27.479999982393707L33.25189986228943,27.479999982393707L33.36857319513957,27.479999982393707L33.4852465279897,27.479999982393707L33.60191986083984,27.479999982393707L33.71859319368998,27.479999982393707L34.30195985794067,27.479999982393707L35.23534652074178,82.28297137827325L35.585366519292194,68.13469811138155L35.702039852142335,52.814988921173594L36.5187531820933,42.680993345632174L36.868773180643714,36.60059600032616L37.102119846343996,32.95235759314937L37.21879317919413,30.763414548845702L37.33546651204427,29.450048722264427L37.80215984344483,28.66202922631595L37.91883317629496,28.18921752874698L38.0355065091451,27.905530510205637L38.385526507695516,27.73531829908086L38.50219984054566,27.633190972406L38.85221983909607,27.57191457640107L39.31891317049662,27.535148738798114L39.552259836196896,27.513089236236368L39.78560650189718,27.499853534699298L39.90227983474731,27.49191211377706L40.01895316759745,27.487147261223726L40.13562650044759,27.484288349691695L40.60231983184814,27.48257300277254L40.835666497548424,27.48154379462096L41.18568649609884,27.48092626973005L41.30235982894897,27.480555754795546L41.41903316179911,27.480333445834816L41.65237982749939,27.480200060458372L41.76905316034953,27.480120029232495L41.88572649319967,27.480072010496997L42.235746491750085,27.480043199255675L42.46909315745036,27.48002591251091L42.58576649030049,27.480015540464024L42.819113156000775,27.480009317235897L42.93578648885091,27.480005583299004L43.285806487401324,27.480003342936897L43.86917315165202,27.480001998719615L43.985846484502154,27.480001192189263L44.102519817352295,27.480000708271035L44.33586648305257,27.48000041792011L44.45253981590271,27.480000243709554L44.685886481602985,27.480000139183204L44.91923314730327,27.480000076467377L45.0359064801534,27.480000038837915L45.15257981300354,27.48000001626022L45.269253145853675,27.48000000271361L45.50259981155396,27.479999994585654L45.61927314440409,27.479999989708887L46.43598647435506,27.479999986782786L46.90267980575562,78.98537134082093L47.36937313715617,61.91636462276969L47.48604647000631,49.3195338003496L47.60271980285645,40.662233080009344L48.069413134257,35.38933984096309L48.41943313280741,32.225603897535365L48.76945313135783,30.327362331478696L48.88612646420797,29.188417391844695L49.236146462758384,28.505050428064266L49.35281979560852,28.095030249796054L49.5861664613088,27.84901814283512L49.70283979415893,27.701410878658578L49.819513127009074,27.61284652015263L50.05285979270935,27.559707905049066L50.16953312555949,27.52782473598691L50.402879791259764,27.50869483454963L50.519553124109905,27.497216893687266L50.636226456960046,27.49033012916985L50.98624645551046,27.48619807045941L51.33626645406087,27.483718835233105L51.919633118311566,27.482231294097346L52.15297978401184,27.481338769415885L52.386326449712115,27.480803254607025L52.502999782562256,27.480481945721692L53.086366446812946,27.480289160390527L53.43638644536336,27.48017348919177L53.5530597782135,27.48010408647255L53.66973311106364,27.480062444841025L53.786406443913776,27.480037459862103L54.01975310961405,27.48002246887475L54.48644644101461,27.480013474282345L54.71979310671488,27.48000807752689L54.95313977241516,27.480004839473594L55.18648643811544,27.48000289664165L55.76985310236613,27.480001730942462L56.00319976806641,27.48000103152296L56.46989309946696,27.480000611871247L57.05325976371765,27.480000360080226L57.28660642941793,27.480000209005624L57.40327976226806,27.480000118360863L57.75329976081848,27.48000006397399L57.98664642651876,27.480000031341888L58.103319759368894,27.4800000117626L58.219993092219035,27.480000000015053L58.45333975791931,82.43999995775393L58.57001309076945,115.41599993239724L58.68668642361959,135.20159991718324L59.15337975502014,143.06873141406882L59.27005308787028,138.21026770454478L59.503399753570555,98.00090191651248L59.85341975212097,69.79254114286496L60.32011308352153,52.86752467867646L60.43678641637166,42.712514800163376L60.5534597492218,36.61950887305548L60.67013308207194,32.963705316790794L60.90347974777222,30.77022318303196L61.25349974632263,29.454133902776675L61.37017307917277,28.664480334623477L61.486846412022906,28.190688193731575L61.83686641057332,27.906412909196433L61.95353974342346,27.735847738475343L62.18688640912374,27.633508636042706L62.88692640622457,27.5721051745831L63.12027307192484,27.535263097707343L63.47029307047526,27.513157851581894L63.5869664033254,27.49989470390659L63.82031306902567,27.491936815301443L63.936986401875814,27.487162082138354L64.5203530661265,27.484297242240473L64.63702639897664,27.482578338301778L64.87037306467691,27.481546995938544L65.10371973037721,27.480928190520615L65.22039306322733,27.480556907269857L65.33706639607747,27.480334137319375L65.6870863946279,27.480200475349108L65.80375972747802,27.480120278166964L66.15377972602843,27.480072159857627L66.27045305887857,27.480043288872082L66.50379972457885,27.48002596628072L66.620473057429,27.480015572725932L66.85381972312926,27.480009336593042L67.32051305452983,27.480005594913308L67.43718638737997,27.480003349905445L67.5538597202301,27.48000200290076L67.78720638593039,27.480001194697962L67.90387971878052,27.48000070977625L68.25389971733092,27.48000041882321L68.37057305018108,27.480000244251386L68.48724638303122,27.48000013950832L68.60391971588135,27.480000076662463L68.83726638158161,27.480000038954955L68.95393971443175,27.48000001633045L69.07061304728191,27.48000000275576L69.18728638013204,27.47999999461092L70.23734637578329,82.43999995451148L70.35401970863342,115.41599993045179L70.5873663743337,134.18091418132502L70.93738637288412,144.7332341620431L71.75409970283508,142.34954059269597L71.87077303568522,138.01429572708645L72.33746636708578,110.8381775493283L72.45413969993591,90.68530703824284L72.57081303278605,72.3124422528583L72.80415969848633,56.65637932941972L73.0375063641866,46.16354262433964L73.50419969558716,38.69012556756127L74.5542596912384,34.206075333494226L74.67093302408854,31.515645193054013L74.78760635693868,29.901387108789862L74.90427968978882,28.9328322582314L75.13762635548909,28.35169934789633L75.25429968833923,28.003019601695286L75.60431968688965,27.793811753974637L75.95433968544006,27.668287045342282L76.77105301539103,27.592972220162835L76.88772634824117,27.54778332505518L77.00439968109131,27.5206699879906L77.12107301394144,27.504401985751855L77.35441967964172,27.494641184408607L77.47109301249186,27.488784703602647L77.587766345342,27.485270815119065L77.82111301104227,27.483162482028916L77.93778634389241,27.481897482174844L78.05445967674255,27.481138482262367L78.28780634244283,27.480683082314897L78.5211530081431,27.480409842346432L78.63782634099324,27.480245898365354L79.10451967239379,27.480147531976684L79.92123300234476,27.48008851214351L80.27125300089519,27.480053100243595L80.38792633374533,27.48003185310361L80.6212729994456,27.48001910481966L80.85461966514588,27.48001145584928L81.20463966369628,27.48000686646705L82.4880463250478,82.44000407762512L82.83806632359823,115.3374881194969L82.95473965644837,135.07597854461994L83.07141298929851,146.76204423644583L83.30475965499878,153.6166550690988L83.53810632069906,155.05993579513137L83.6547796535492,152.6283041018288L83.88812631924947,140.88395452261187L84.47149298350017,105.10111531417998L84.5881663163503,80.64786943930966L85.28820631345113,59.930321132051745L85.52155297915141,47.107221561743984L85.63822631200155,39.33484573684595L85.75489964485169,34.59290743506506L85.87157297770182,31.747744453996518L85.98824631055196,30.040646665355382L86.1049196434021,29.016387992170706L86.22159297625224,28.401832788259924L86.33826630910238,28.033099665913426L86.45493964195252,27.811859792505544L86.57161297480265,27.679115868460798L86.80495964050293,27.599469514033956L87.15497963905335,27.551681701377873L87.27165297190348,27.52300901378419L87.38832630475362,27.505805401228002L87.6216729704539,27.495483233694273L88.08836630185445,27.489289933174064L88.32171296755473,27.4855739528619L88.555059633255,27.48334436467465L89.02175296465556,27.482006611762273L89.1384262975057,27.481203960014852L89.25509963035583,27.480722368966383L89.48844629605611,27.480433414337284L89.72179296175639,27.480260041559887L89.95513962745666,27.480156017893393L90.18848629315694,27.48009360369352L90.30515962600708,27.4800561551736L90.65517962455749,27.48003368606163L90.88852629025777,27.480020204594467L91.00519962310791,27.480012115714146L91.12187295595805,27.480007262385953L91.23854628880818,27.480004350389038L91.35521962165832,27.48000260319091L91.47189295450846,27.48000155487202L91.70523962020874,27.480000925880688L91.82191295305888,27.48000054848589L92.40527961730957,27.480000322049023L92.52195295015972,27.480000186186913L92.75529961585998,27.480000104669614L92.87197294871012,27.480000055759263L92.98864628156026,27.48000002641305L93.33866628011067,82.43999997359272L93.57201294581095,115.41599994190051L93.80535961151124,135.2015999228852L94.0387062772115,147.072959911476L94.27205294291178,154.1957759046305L94.50539960861207,158.4694655005232L94.62207294146219,161.0336792580588L94.73874627431233,162.4936932277571L95.08876627286276,163.44821589439914L95.5554596042633,164.02092949438438L95.67213293711345,164.28604336955243L95.90547960281373,164.4451116946533L96.02215293566385,164.61906697453685L96.25549960136414,164.723440142467L96.72219293276468,164.70754975840202L97.30555959701537,164.54098696471505L98.12227292696635,160.5938491978102L98.23894625981649,156.10568103299155L98.47229292551677,150.11518041466218L98.58896625836691,143.77287939025095L98.70563959121704,138.63275649025405L98.82231292406718,132.25108262133384L98.93898625691732,124.73190594717097L99.05565958976746,115.66657197317875L99.28900625546773,103.86771466527242L99.40567958831787,94.90405688173436L99.87237291971843,78.1412922878753L99.98904625256856,66.3563190223211L100.22239291826884,57.00842107824133L100.45573958396912,49.5938517198413L100.80575958251953,43.10374109232288L101.03910624821981,38.03195968208152L101.15577958106995,35.0674036427788L101.27245291392009,32.89609943324413L101.6224729124705,31.043717432014887L101.73914624532064,30.167829927674887L101.85581957817078,29.406755728673346L101.97249291102092,29.02862401611449L102.08916624387105,28.723232181737103L102.32251290957133,28.304452108841815L102.43918624242147,28.05318406510463L102.55585957527161,27.980939321575704L102.78920624097188,27.85907639274501L102.90587957382202,27.707445828604477L103.02255290667216,27.616467490120186L103.1392262395223,27.640393293871682L103.25589957237244,27.576235969280475L103.37257290522257,27.537741574525768L103.60591957092285,27.514644937672927L103.72259290377299,27.50078695556124L104.0726129023234,27.49247216629425L104.53930623372396,27.487483292733998L104.88932623227437,27.48448996859787L105.00599956512451,82.44269393890362L105.12267289797465,115.41761632108707L105.35601956367492,135.20256975039712L105.47269289652506,147.07354180798316L105.5893662293752,154.1961250425348L105.70603956222534,158.46967498326578L105.93938622792562,161.03380494770437L106.05605956077575,162.5722829263675L106.17273289362589,163.4953697135654L106.63942622502645,164.04922178588413L107.106119556427,164.38153302927537L107.22279288927714,164.58091977531012L107.45613955497741,164.70055182293095L107.57281288782755,164.77233105150347L107.6894862206777,164.81539858864699L107.80615955352783,164.8412391109331L107.92283288637798,164.85674342430474L108.0395062192281,164.86604601232773L108.38952621777852,164.87162756514152L108.50619955062866,164.87497649682982L109.2062395477295,164.7984715710197L109.43958621342976,164.67405433071056L109.5562595462799,164.75643255617123L109.67293287913004,164.64883092180148L109.78960621198019,164.42724137153346L110.02295287768047,164.37280193259392L110.37297287623088,164.10459542115916L110.48964620908102,162.21635726098697L110.83966620763142,161.08341436488365L110.95633954048157,159.30444865249493L111.0730128733317,158.39409770513325L111.30635953903199,155.80651587207632L111.53970620473225,151.11339553287553L111.88972620328268,145.54952267594143L112.00639953613282,138.9135996518267L112.23974620183309,133.5973019140721L112.58976620038351,123.26272353806667L112.70643953323365,115.57020533755784L112.82311286608378,109.77698102145784L113.05645953178406,102.45384518943168L113.1731328646342,97.58887702154956L113.28980619748434,91.60784096416705L113.5231528631846,86.37041762734084L113.63982619603475,80.55847905454488L113.75649952888489,75.57954309802605L114.33986619313558,66.93915460360331L114.80655952453613,59.556520329044545L114.92323285738627,54.4988274819587L115.15657952308655,49.03026889940449L115.38992618878683,44.49290263342829L115.6232728544871,41.927511763398L115.73994618733724,40.231248351824405L115.85661952018738,37.564691878354836L115.97329285303752,36.59287355249495L116.08996618588766,35.774237584710136L116.20663951873779,34.183857053022365L116.43998618443807,33.072599844454174L116.67333285013835,85.79555986441741L116.90667951583862,117.42933587639534L117.25669951438904,136.4096014835821L117.49004618008931,147.79776084789415L117.60671951293945,154.63065646648138L117.72339284578959,158.73039383763373L118.19008617719014,161.19023626032512L118.42343284289042,162.66614171393996L118.54010617574056,163.55168498610888L118.77345284144084,164.0830109494102L119.12347283999125,164.40180652739102L119.35681950569153,164.5930838741795L119.47349283854167,164.7078502822526L119.5901661713918,164.77671012709644L119.94018616994222,164.81802603400277L120.29020616849263,164.84281557814654L120.40687950134277,164.85768930463283L120.64022616704305,164.86661354052458L120.87357283274332,164.47939665154607L121.1069194984436,163.46192363153907L121.69028616269429,158.84721142791983L121.92363282839457,151.9956411669845L122.04030616124471,146.94252731102623L122.15697949409486,141.55523056792626L122.27365282694498,136.12445216312895L122.6236728254954,125.0930714666117L123.32371282259624,102.928414103488L123.5570594882965,87.43121850770862L123.67373282114664,74.8353010213189L123.79040615399678,67.0422088330875L123.90707948684692,59.304295087624126L124.02375281969707,55.76074906723433L124.49044615109761,48.4526779272841L124.7237928167979,42.81160740274157L124.84046614964804,39.34844900530268L125.19048614819845,36.87798338088635L125.30715948104859,34.84610453072804L125.42383281389873,32.99886166241123L125.54050614674885,31.89051594142117L125.657179479599,30.754425116032024L125.89052614529928,30.386825124038154L126.00719947814942,29.61666565333337L126.12387281099956,29.390114943179327L126.24054614384968,29.25418451708694L126.47389280954997,28.78005239960717L126.82391280810039,28.338544239563902L127.05725947380066,28.230668233093382L127.1739328066508,28.322971518766508L127.40727947235108,28.142811793772836L127.52395280520122,28.034715958776644L127.87397280375163,27.812829568223464L127.99064613660177,27.83672662344702L128.22399280230206,27.694035967025684L128.34066613515216,82.5684215379603L129.15737946510313,113.29465293106765L129.2740527979533,130.47416310739183L129.39072613080344,138.897526223876L129.50739946365357,144.03005853854427L129.6240727965037,145.6178063429557L129.74074612935382,144.92165537062544L129.85741946220398,143.16922168290932L130.09076612790426,138.11353297629364L130.20743946075441,130.52629178282973L130.3241127936045,122.28377471394063L130.67413279215495,107.83803630972955L130.7908061250051,94.93082307681932L130.90747945785523,82.39712219530985L131.02415279070536,73.22810323987876L131.25749945640564,63.32988951080979L131.95753945350648,52.05199213196792L132.0742127863566,44.107538670932485L132.19088611920677,39.49789548386664L132.42423278490702,36.41805179251625L132.89092611630758,33.39243054397568L133.240946114858,31.027458319342884L133.59096611340843,29.844016680960777L134.05765944480896,29.133951697931508L134.40767944335937,28.472371011716405L134.5243527762095,28.07542259998732L134.64102610905965,27.837253552949875L134.87437277475993,27.69435212472743L134.99104610761006,27.60861126779392L135.1077194404602,27.55716675363385L135.45773943901062,27.526300045137788L135.57441277186078,27.507780020040173L135.80775943756103,27.496668004981586L136.0411061032613,27.49000079594643L136.15777943611147,27.48600047052534L136.39112610181172,27.483600275272664L136.624472767512,27.482160158121076L136.74114610036216,27.481296087830145L136.97449276606244,27.480777645655564L137.2078394317627,27.480466580350793L137.32451276461285,27.480279941167964L137.44118609746297,27.480167957658267L137.55785943031313,27.480100767552415L137.9078794288635,27.48006045348896L138.02455276171366,27.480036265050842L138.14122609456382,27.480021751988005L138.4912460931142,27.480013044150297L138.60791942596435,27.48000781944765L139.54130608876548,27.480004684626067L139.89132608731586,27.4800028037331L140.00799942016602,82.44000163998479L140.2413460858663,115.41600094173576L140.47469275156658,135.20160052278635L140.5913660844167,147.0729602714167L140.9413860829671,154.1957761205949L141.05805941581727,158.46946563010184L141.29140608151755,161.033679335806L141.40807941436768,162.5722075592285L141.5247527472178,163.495324493282L141.64142608006796,164.0491946537141L141.99144607861837,164.30300246515026L142.92483274141946,164.53380143683506L143.04150607426962,164.67228081984592L143.15817940711975,164.75536844965245L143.39152607282003,164.80522102753636L143.6248727385203,164.75661828944362L143.74154607137044,164.80597093141108L143.8582194042206,164.83558251659153L144.09156606992084,164.85334946769981L144.32491273562113,164.8640096383648L144.44158606847128,164.87040574076377L144.5582594013214,164.79572911738006L144.90827939987182,164.67240885852678L145.02495273272197,164.04881670305508L145.1416260655721,163.8316899922146L145.7249927298228,162.60221399098356L145.95833939552307,161.00087123799656L146.0750127283732,159.33343701639845L146.30835939407348,157.15526226867712L146.42503272692363,155.2202430902742L146.6583793926239,151.31123133930274L147.35841938972473,140.80033923016015L147.47509272257486,132.29540278676947L147.70843938827514,124.20889857092385L147.94178605397542,114.41059584803335L148.40847938537598,102.1719589287237L148.64182605107627,91.37414775866034L148.87517271677652,82.54003098916172L149.1085193824768,75.2767047218262L149.34186604817708,67.62110883250281L149.57521271387736,62.00706515473394L149.6918860467275,56.989840521547194L149.80855937957764,54.2935602448748L149.92523271242777,51.105506459188035L150.04190604527793,48.01496242991695L150.50859937667846,44.66886319951303L150.74194604237874,41.79754640665135L150.85861937522887,38.8185284903619L151.5586593723297,36.16746048596889L151.79200603803,87.65247624932623L152.02535270373028,118.54348570734064L152.1420260365804,137.07809138214927L152.25869936943053,148.19885478703446L152.95873936653138,154.87131282996558L153.30875936508178,158.87478765572422L153.54210603078207,161.27687255117942L153.89212602933247,162.71812348845256L154.24214602788288,163.58287405081643L154.35881936073304,164.10172438823474L154.59216602643332,164.41303459068573L154.70883935928344,164.59982071215634L154.82551269213357,164.71189238503868L154.94218602498373,164.7791353887681L155.175532690684,164.81948119100576L155.29220602353413,164.84368867234835L155.52555268923442,164.8582131611539L155.64222602208454,164.86692785443722L155.7588993549347,164.87215667040724L156.1089193534851,164.87529395998922L156.22559268633523,164.87717633373842L156.45893935203551,164.87830575798796L157.39232601483664,164.7219548428915L157.50899934768677,164.54963001540875L157.6256726805369,164.52474939734398L157.74234601338705,164.50982102650514L158.09236601193746,164.5008640040018L158.20903934478758,164.5740040753229L158.32571267763774,164.30383097242506L158.67573267618815,164.2987556931289L158.7924060090383,163.98165338625887L158.90907934188843,163.4773348372518L159.25909934043884,163.17474370784757L160.6591793346405,160.48073181349557L161.0091993331909,157.21552481716526L161.2425459988912,154.94234324974008L161.35921933174134,153.0288344242926L161.5925659974416,151.0170718744047L161.70923933029175,148.9463574993365L162.05925932884216,145.58404296013595L162.40927932739257,140.34756855247127L162.52595266024272,137.12716946309473L162.64262599309285,134.72384415977024L162.759299325943,132.418192542124L162.87597265879313,129.54303039663063L162.99264599164326,125.93358971054042L163.1093193244934,123.06129693382232L163.22599265734354,120.70980734750528L163.45933932304382,138.37788436624805L163.6926859887441,148.97873057749374L163.80935932159423,155.33923830424112L164.0427059872945,159.15554294028956L164.2760526529948,161.44532572191864L164.50939931869507,162.81919539089608L164.6260726515452,163.64351719228253L164.74274598439536,164.13811027311442L164.85941931724548,164.43486612161354L164.9760926500956,164.612919630713L165.09276598294576,164.7197517361727L165.55945931434633,164.7838509994485L166.14282597859702,164.822310557414L166.25949931144714,164.8453862921933L166.49284597714743,164.85923173306088L166.60951930999755,164.86753899758142L167.07621264139812,164.87252335629373L167.19288597424824,164.87551397152114L167.3095593070984,164.7987940558345L167.54290597279868,164.83127639124558L167.8929259713491,164.85076579249224L168.2429459698995,164.70543086359407L168.47629263559978,164.69674419107827L168.70963930130006,164.45598933309955L168.82631263415018,164.39005070953357L169.05965929985047,164.27197324417273L169.1763326327006,163.80855533444264L169.52635263125103,162.8238760187987L169.64302596410116,162.62563983433319L169.75969929695128,161.40749814892715L169.99304596265156,160.67661313768352L170.10971929550172,158.7463107512898L170.22639262835185,158.60881505414451L170.45973929405213,157.58414593646023L170.57641262690225,154.53540200103086L170.6930859597524,154.35495529475037L170.80975929260254,152.8334301313703L170.9264326254527,151.0568581882068L171.04310595830282,149.99091502230868L171.6264726225535,145.11157770393453L171.74314595540363,141.08477554292526L171.97649262110392,135.3710941173976L172.44318595250448,126.68242728958694L172.5598592853546,119.8204271284395L172.7932059510549,114.83956977713166L173.25989928245545,105.80545622194687L173.49324594815573,99.83538861332752L173.72659261385598,91.77803288550352L173.95993927955627,87.10064833836456L174.07661261240642,81.86027473577848L174.19328594525655,78.48050887782928L174.3099592781067,75.27493432932944L174.54330594380696,70.8391306432135L174.8933259423574,66.13627941906549L175.00999927520752,105.63376760918419L175.2433459409078,129.25374623843234L175.36001927375793,143.34721913115814L175.47669260660808,151.80330286679362L175.71003927230834,155.77775312065182L176.1767326037089,154.07968023183201L176.41007926940918,147.40780794009305L176.5267526022593,139.40045689003148L176.7600992679596,127.13718874753096L176.87677260080974,115.7749993680446L177.22679259936015,96.6309424792838L177.34346593221028,83.18165214039101L177.92683259646097,65.45481924668658L178.04350592931112,53.876549449002454L178.16017926216125,45.830385343503735L178.2768525950114,40.92417407336245L178.51019926071166,37.587876725324634L178.74354592641194,34.87946995143801L178.8602192592621,32.626310328884216L178.97689259211222,31.35293063806529L179.09356592496235,30.510386740860582L179.2102392578125,29.84783151298231L179.32691259066263,29.37178556941322L179.67693258921307,28.85061303100298L180.02695258776347,28.53790950795684L180.26029925346376,28.35028739412911L180.493645919164,28.237714125832497L180.61031925201416,27.934628468456964L180.7269925848643,27.831289880873754L180.84366591771445,27.769286728323834L180.96033925056457,27.73208483679386L181.42703258196514,27.631250895033787L181.89372591336567,27.72777941953322L182.12707257906595,27.628667644677392L182.2437459119161,27.56920057976393L182.59376591046652,27.53352034081584L182.71043924331664,27.51211219744698L182.8271125761668,27.577780118267754L183.1771325747172,27.538668063918152L183.5271525732676,27.593713638150433L183.64382590611777,27.548228175847782L183.7604992389679,27.599449705308217L183.99384590466818,27.551669816142407L184.1105192375183,27.523001882642944L184.22719257036846,27.505801122543232L184.57721256891887,27.573993473325515L184.81055923461915,27.536396076952798L184.92723256746928,27.51383763912915L185.04390590031943,27.50030257643499L185.16057923316956,27.49218153881847L185.27725256601968,27.487308916248537L185.39392589886984,27.484385342706645L185.62727256457012,27.48263119858146L185.74394589742025,27.48157871210634L186.09396589597065,27.48094722022128L186.67733256022134,82.44056828987767L188.077412554423,112.51131241241218L188.19408588727316,128.74793013665834L188.3107592201233,137.78327240614212L188.42743255297344,141.2416203337443L188.89412588437398,131.38245805312528L189.24414588292439,118.40067539617894L189.36081921577454,107.47103292470885L189.59416588147482,94.39656326669599L189.71083921432495,83.80388081847461L189.82751254717508,77.44827134954181L189.94418588002523,69.2381065882431L190.1775325457255,62.035093746716626L190.4108792114258,55.122314277942564L190.52755254427592,50.81761770712268L190.64422587712605,46.66451414494742L190.87757254282633,42.91642416706986L190.99424587567648,40.196483511676945L191.1109192085266,37.77937467066391L191.3442658742269,36.01505486281644L191.57761253992717,34.171318530330666L192.277652537028,32.436961172617345L192.51099920272827,31.47486284070274L193.09436586697896,30.4265171728876L193.2110391998291,29.483451993087584L193.67773253122965,28.839100078365504L194.26109919548034,28.373972846818873L194.3777725283305,28.173412590604272L194.84446585973103,28.0530764368755L195.3111591911316,27.902358661924865L195.661179189682,27.811927996954466L196.0111991882324,27.679156791130197L196.12787252108257,27.67800687447766L196.2445458539327,27.59880411764408L196.5945658524831,27.55128246354394L196.71123918533326,27.522769471083848L197.06125918388366,27.505661675607797L197.29460584958395,27.49539699832215L197.41127918243407,27.48923819195076L197.52795251528423,27.56405571497001L198.3446658452352,82.4904333867269L198.46133917808532,115.44625998978104L198.57801251093545,135.21975595161354L198.6946858437856,147.083853528713L198.9280325094859,154.2023120749727L199.04470584233601,158.4733872027285L199.16137917518617,161.036032279382L199.2780525080363,162.5736193253741L199.39472584088642,163.49617155296934L199.51139917373658,164.0497028895265L199.6280725065867,164.3033074066377L199.74474583943686,164.5339844017275L199.861419172287,164.6723905987814L200.2114391708374,164.67692003219065L200.44478583653768,164.20855198969593L201.02815250078837,163.8490168729778L201.14482583363852,163.63329580294698L201.26149916648865,163.26832028726466L201.49484583218893,161.87162066072182L202.3115591621399,157.65748672058018L202.54490582784018,154.10832062180427L203.12827249209087,148.13162053914033L203.244945824941,143.28937264896956L203.71163915634156,135.35910845773844L203.94498582204184,126.59672144901371L204.06165915489197,120.39711918231741L204.29500582059225,114.5574710891722L204.41167915344238,109.40488216882403L204.64502581914266,103.32978482886831L204.7616991519928,99.52770081121069L205.46173914909363,90.49422125321647L205.57841248194376,84.68156293246693L205.6950858147939,80.17328179584234L206.2784524790446,72.2078535034379L206.39512581189473,67.89968319666163L207.44518580754598,59.818779705768605L207.5618591403961,54.656183107993144L207.91187913894655,50.69496789470847L208.02855247179667,47.84715209807129L208.1452258046468,45.51034706186718L208.37857247034708,43.16609397868322L208.61191913604736,41.60251323921739L208.84526580174764,39.957736430473915L209.19528580029805,38.185729173321846L209.3119591331482,37.20103762587269L209.54530579884846,36.374681001005655L209.66197913169862,35.0937225783081L209.8953257973989,35.89543314437293L210.12867246309915,87.48925984436866L210.2453457959493,118.367041579543L210.4786924616496,136.81519633582454L210.5953657944997,147.88408918959345L211.06205912590028,154.52542490185482L211.1787324587504,158.43171205078673L211.41207912445068,160.14737003596852L211.5287524573008,161.4123077007414L211.64542579015097,162.01424171716258L211.7620991230011,162.21837359575824L211.99544578870137,162.02679555803059L212.1121191215515,161.99036297542978L212.22879245440166,161.18336051365665L212.34546578725178,159.91401622675113L212.81215911865235,155.69778125035612L213.04550578435263,152.77546885959828L213.16217911720275,150.86505253558812L213.2788524500529,147.2063458315855L213.51219911575316,143.04826478457977L213.74554578145344,138.74758720235982L213.97889244715373,133.02660941366122L214.212239112854,127.70967934164784L214.32891244570413,121.45746450385089L214.4455857785543,117.07802168088654L214.67893244425457,110.60315638267734L214.7956057771047,106.01160883868789L214.91227910995482,102.23599416811938L215.02895244280498,98.24331085653951L215.1456257756551,94.66998583586125L215.26229910850526,91.50530467927946L215.4956457742055,85.68078357405774L215.61231910705567,83.36378594465499L215.96233910560608,76.0850154742331L216.0790124384562,72.4243815570439L216.31235910415649,67.48000055331674L216.42903243700664,62.864570248683776L216.77905243555705,60.17382814861736L216.89572576840717,57.46018393756056L217.01239910125733,54.34022459808527L217.12907243410746,51.44756285022524L217.2457457669576,50.41859416657317L217.47909243265786,48.152414529856486L217.94578576405843,45.06539223858769L218.1791324297587,43.684265532492816L218.29580576260884,41.04975891688372L218.412479095459,40.41122828485106L218.7624990940094,38.77187878918775L218.87917242685953,37.2386696162813L219.1125190925598,36.318744112537445L219.57921242396037,34.98164763838511L219.6958857568105,34.02236086433825L219.81255908966065,33.36827271719676L219.92923242251078,33.0543359116252L220.16257908821106,32.237858270060485L220.62927241961162,31.4339139060107L220.74594575246175,31.265605066691762L220.97929241816203,31.63570643176675L221.09596575101216,31.308167775303303L221.2126390838623,30.326500133647954L221.32931241671244,30.52264399643201L221.56265908241272,29.855185866325144L221.91267908096313,83.86511147754L222.02935241381329,116.27106684426889L222.1460257466634,135.71464006430622L222.26269907951354,147.38078399632863L222.3793724123637,154.38047035554206L222.7293924109141,158.58028217107014L222.84606574376423,161.10016926038696L223.3127590751648,162.29804437468476L223.42943240801495,162.46716943030734L223.6627790737152,162.7256730461234L223.77945240656535,162.48820381069223L223.89612573941548,162.73829367435434L224.36281907081604,160.4544047182489L224.71283906936645,157.5922999649381L224.94618573506673,152.73446546410108L225.29620573361714,147.2287938187085L225.4128790664673,142.43361883759957L225.52955239931742,139.39948577834656L225.64622573216755,136.7938631329531L225.7628990650177,133.18911725736731L225.996245730718,129.69152744666573L226.1129190635681,125.47308846505298L226.22959239641824,123.41311010681608L226.57961239496868,116.9951795641576L226.6962857278188,110.00384999919588L226.92963239351909,104.94539500559945L227.0463057263692,100.26152194498056L227.16297905921937,94.93874242746442L227.51299905776978,88.29044569847717L227.74634572347006,81.47495420082912L227.86301905632018,79.58405720427417L227.97969238917034,74.20974881595761L228.09636572202047,70.35704822474584L228.91307905197144,63.25605820412673L229.02975238482156,58.83843530219983L229.379772383372,55.01014652731337L229.9631390476227,50.04368869168121L230.42983237902322,45.33649948106316L230.6631790447235,42.433669871978964L230.8965257104238,40.770488189241775L231.12987237612407,39.458521400488564L231.2465457089742,38.90688302363421L231.36321904182435,37.79075882561554L231.47989237467448,37.19959711364643L231.94658570607504,36.21678780411446L232.06325903892517,35.62710221839524L232.17993237177532,35.19477478425034L232.41327903747558,34.1502371518574L232.52995237032573,33.28796960015279L232.64662570317586,33.47723743419394L233.11331903457642,32.57011526631507L233.3466657002767,85.49406911753395L233.58001236597696,116.77735573212318L233.81335903167724,133.42744204264454L233.9300323645274,143.10343666407232L234.16337903022767,150.00823341165568L234.6300723616282,150.93202577606132L234.8634190273285,146.46138696602776L234.98009236017862,140.48140355108552L235.33011235872905,127.70724229938564L235.68013235727946,112.74091528752196L236.14682568868002,94.02534758319293L236.38017235438028,79.49841010754467L236.49684568723043,69.3689876161566L236.84686568578084,60.621849550623494L237.3135590171814,51.84042488598399L237.43023235003153,46.49305400448691L237.5469056828817,43.520176447857494L237.6635790157318,40.244677101038604L238.01359901428222,37.572749127883355L238.13027234713238,36.12662123354565L238.2469456799825,34.63082893872121L238.48029234568278,33.18375408631809L238.5969656785329,32.47253806443163L238.71363901138307,32.20283734085527L238.94698567708335,31.88398801715394L239.06365900993347,31.457136726535595L239.41367900848388,30.49439758710068L239.53035234133404,30.387837496234823L239.7636990070343,30.166872552159873L239.99704567273457,29.720239082475217L240.11371900558473,29.37374291795109L240.23039233843485,29.322874108792064L241.04710566838583,29.056811126899106L241.16377900123595,28.818657255049942L241.2804523340861,28.59725212509835L241.39712566693623,28.38589296441404L242.09716566403708,28.180564661161384L242.2138389968872,28.21439656876521L242.33051232973733,28.077666823772063L242.4471856625875,27.995628976776203L242.5638589954376,27.867890185865264L242.7972056611379,27.712734104476652L243.1472256596883,27.619640455643463L243.49724565823874,27.64229707318563L243.96393898963927,27.655891043710938L244.08061232248943,27.664047426026144L244.19728565533956,27.747457338128612L244.3139589881897,27.718987202676743L244.43063232103984,27.701905121405645L244.66397898674012,27.848684762198417L244.78065231959025,27.70121085027654L245.2473456509908,82.57272646791081L245.59736564954122,113.37575012907372L245.71403898239134,130.91539283111632L246.06405898094178,140.88957856734947L246.1807323137919,143.34094736480193L246.29740564664206,138.29508283020692L246.4140789794922,131.18482117068618L246.53075231234232,122.36483620547922L246.7640989780426,104.35353137933303L246.88077231089275,91.03428952662927L246.99744564374288,78.72445814191006L247.114118976593,68.9831325194892L247.23079230944316,60.5473653821785L247.69748564084372,50.69653215802877L247.81415897369385,43.37277549341107L247.93083230654398,38.742979798242914L248.2808523050944,34.78738734741165L248.51419897079467,32.492547959626336L248.63087230364482,30.723070465130803L248.74754563649495,29.81841285798899L248.98089230219523,29.197105486861773L249.09756563504536,28.98134995374093L249.2142389678955,28.537838854757496L249.4475856335958,28.350245002209533L249.56425896644592,28.159175883838657L249.91427896499633,28.044534412816148L250.1476256306966,27.89723344748927L250.3809722963969,27.887368951006493L250.49764562924702,27.72442136356139L250.7309922949473,27.705165617936416L251.0810122934977,27.69361217056141L251.314358959198,27.60816729529435L251.43103229204814,27.556900370134088L251.54770562489827,27.526140215037913L251.78105229059855,27.50768412198022L252.01439895629883,27.496610466145626L252.13107228914896,27.489966272644835L252.24774562199912,27.485979756544396L252.71443895339965,27.56210065372622L252.8311122862498,27.607773192035324L253.0644589519501,27.556663908178678L253.29780561765034,27.525998337864678L253.88117228190103,27.50759899567629L254.3478656133016,27.575072197205344L254.46453894615172,27.537043311280684L254.58121227900187,27.514225979725893L254.697885611852,27.500535580793013L256.09796560605366,27.492321341433296L256.3313122717539,27.565905604659548L256.5646589374542,27.5315433557532" fill="none"></path></g></g></g></g><g opacity="0.2"><g><g><g><path style="fill: none;" stroke="rgb(255, 112, 67)" stroke-width="2px" d="M23.91803323427836,27.479999982393707L24.0347065671285,27.479999982393707L24.50139989852905,27.479999982393707L24.618073231379192,27.479999982393707L24.851419897079467,27.479999982393707L24.968093229929607,27.479999982393707L25.084766562779745,27.479999982393707L25.318113228480023,27.479999982393707L25.43478656133016,27.479999982393707L25.551459894180297,27.479999982393707L25.668133227030435,27.479999982393707L26.13482655843099,27.479999982393707L27.184886554082233,27.479999982393707L27.301559886932374,27.479999982393707L27.53490655263265,27.479999982393707L27.884926551183064,27.479999982393707L28.001599884033205,27.479999982393707L28.23494654973348,27.479999982393707L28.468293215433757,27.479999982393707L28.584966548283894,27.479999982393707L28.818313213984172,27.479999982393707L29.051659879684447,27.479999982393707L29.168333212534588,27.479999982393707L29.518353211085003,27.479999982393707L29.63502654393514,27.479999982393707L29.751699876785278,27.479999982393707L29.86837320963542,27.479999982393707L29.985046542485556,27.479999982393707L30.33506654103597,27.479999982393707L30.45173987388611,27.479999982393707L30.685086539586386,27.479999982393707L30.91843320528666,27.479999982393707L31.0351065381368,27.479999982393707L31.15177987098694,27.479999982393707L31.268453203837076,27.479999982393707L31.61847320238749,27.479999982393707L31.73514653523763,27.479999982393707L31.85181986808777,27.479999982393707L31.968493200937907,27.479999982393707L32.20183986663819,27.479999982393707L32.551859865188604,27.479999982393707L33.13522652943929,27.479999982393707L33.25189986228943,27.479999982393707L33.36857319513957,27.479999982393707L33.4852465279897,27.479999982393707L33.60191986083984,27.479999982393707L33.71859319368998,27.479999982393707L34.30195985794067,27.479999982393707L35.23534652074178,164.48742847024684L35.585366519292194,46.91228821132995L35.702039852142335,29.835425136047405L36.5187531820933,27.479999982393707L36.868773180643714,27.479999982393707L37.102119846343996,27.479999982393707L37.21879317919413,27.479999982393707L37.33546651204427,27.479999982393707L37.80215984344483,27.479999982393707L37.91883317629496,27.479999982393707L38.0355065091451,27.479999982393707L38.385526507695516,27.479999982393707L38.50219984054566,27.479999982393707L38.85221983909607,27.479999982393707L39.31891317049662,27.479999982393707L39.552259836196896,27.479999982393707L39.78560650189718,27.479999982393707L39.90227983474731,27.479999982393707L40.01895316759745,27.479999982393707L40.13562650044759,27.479999982393707L40.60231983184814,27.479999982393707L40.835666497548424,27.479999982393707L41.18568649609884,27.479999982393707L41.30235982894897,27.479999982393707L41.41903316179911,27.479999982393707L41.65237982749939,27.479999982393707L41.76905316034953,27.479999982393707L41.88572649319967,27.479999982393707L42.235746491750085,27.479999982393707L42.46909315745036,27.479999982393707L42.58576649030049,27.479999982393707L42.819113156000775,27.479999982393707L42.93578648885091,27.479999982393707L43.285806487401324,27.479999982393707L43.86917315165202,27.479999982393707L43.985846484502154,27.479999982393707L44.102519817352295,27.479999982393707L44.33586648305257,27.479999982393707L44.45253981590271,27.479999982393707L44.685886481602985,27.479999982393707L44.91923314730327,27.479999982393707L45.0359064801534,27.479999982393707L45.15257981300354,27.479999982393707L45.269253145853675,27.479999982393707L45.50259981155396,27.479999982393707L45.61927314440409,27.479999982393707L46.43598647435506,27.479999982393707L46.90267980575562,156.2434283718781L47.36937313715617,36.3128545456928L47.48604647000631,30.42428756671947L47.60271980285645,27.67628199949891L48.069413134257,27.479999982393707L48.41943313280741,27.479999982393707L48.76945313135783,27.479999982393707L48.88612646420797,27.479999982393707L49.236146462758384,27.479999982393707L49.35281979560852,27.479999982393707L49.5861664613088,27.479999982393707L49.70283979415893,27.479999982393707L49.819513127009074,27.479999982393707L50.05285979270935,27.479999982393707L50.16953312555949,27.479999982393707L50.402879791259764,27.479999982393707L50.519553124109905,27.479999982393707L50.636226456960046,27.479999982393707L50.98624645551046,27.479999982393707L51.33626645406087,27.479999982393707L51.919633118311566,27.479999982393707L52.15297978401184,27.479999982393707L52.386326449712115,27.479999982393707L52.502999782562256,27.479999982393707L53.086366446812946,27.479999982393707L53.43638644536336,27.479999982393707L53.5530597782135,27.479999982393707L53.66973311106364,27.479999982393707L53.786406443913776,27.479999982393707L54.01975310961405,27.479999982393707L54.48644644101461,27.479999982393707L54.71979310671488,27.479999982393707L54.95313977241516,27.479999982393707L55.18648643811544,27.479999982393707L55.76985310236613,27.479999982393707L56.00319976806641,27.479999982393707L56.46989309946696,27.479999982393707L57.05325976371765,27.479999982393707L57.28660642941793,27.479999982393707L57.40327976226806,27.479999982393707L57.75329976081848,27.479999982393707L57.98664642651876,27.479999982393707L58.103319759368894,27.479999982393707L58.219993092219035,27.479999982393707L58.45333975791931,164.87999989436224L58.57001309076945,164.87999989436224L58.68668642361959,164.87999989436224L59.15337975502014,154.86942865939716L59.27005308787028,130.92257214025875L59.503399753570555,37.686853234463996L59.85341975212097,27.479999982393707L60.32011308352153,27.479999982393707L60.43678641637166,27.479999982393707L60.5534597492218,27.479999982393707L60.67013308207194,27.479999982393707L60.90347974777222,27.479999982393707L61.25349974632263,27.479999982393707L61.37017307917277,27.479999982393707L61.486846412022906,27.479999982393707L61.83686641057332,27.479999982393707L61.95353974342346,27.479999982393707L62.18688640912374,27.479999982393707L62.88692640622457,27.479999982393707L63.12027307192484,27.479999982393707L63.47029307047526,27.479999982393707L63.5869664033254,27.479999982393707L63.82031306902567,27.479999982393707L63.936986401875814,27.479999982393707L64.5203530661265,27.479999982393707L64.63702639897664,27.479999982393707L64.87037306467691,27.479999982393707L65.10371973037721,27.479999982393707L65.22039306322733,27.479999982393707L65.33706639607747,27.479999982393707L65.6870863946279,27.479999982393707L65.80375972747802,27.479999982393707L66.15377972602843,27.479999982393707L66.27045305887857,27.479999982393707L66.50379972457885,27.479999982393707L66.620473057429,27.479999982393707L66.85381972312926,27.479999982393707L67.32051305452983,27.479999982393707L67.43718638737997,27.479999982393707L67.5538597202301,27.479999982393707L67.78720638593039,27.479999982393707L67.90387971878052,27.479999982393707L68.25389971733092,27.479999982393707L68.37057305018108,27.479999982393707L68.48724638303122,27.479999982393707L68.60391971588135,27.479999982393707L68.83726638158161,27.479999982393707L68.95393971443175,27.479999982393707L69.07061304728191,27.479999982393707L69.18728638013204,27.479999982393707L70.23734637578329,164.87999989436224L70.35401970863342,164.87999989436224L70.5873663743337,162.32828555763487L70.93738637288412,160.56171413312018L71.75409970283508,138.77400023867534L71.87077303568522,131.51142842867216L72.33746636708578,70.07400028269109L72.45413969993591,60.45600127161467L72.57081303278605,44.753145074781486L72.80415969848633,33.172284944261804L73.0375063641866,30.42428756671947L73.50419969558716,27.479999982393707L74.5542596912384,27.479999982393707L74.67093302408854,27.479999982393707L74.78760635693868,27.479999982393707L74.90427968978882,27.479999982393707L75.13762635548909,27.479999982393707L75.25429968833923,27.479999982393707L75.60431968688965,27.479999982393707L75.95433968544006,27.479999982393707L76.77105301539103,27.479999982393707L76.88772634824117,27.479999982393707L77.00439968109131,27.479999982393707L77.12107301394144,27.479999982393707L77.35441967964172,27.479999982393707L77.47109301249186,27.479999982393707L77.587766345342,27.479999982393707L77.82111301104227,27.479999982393707L77.93778634389241,27.479999982393707L78.05445967674255,27.479999982393707L78.28780634244283,27.479999982393707L78.5211530081431,27.479999982393707L78.63782634099324,27.479999982393707L79.10451967239379,27.479999982393707L79.92123300234476,27.479999982393707L80.27125300089519,27.479999982393707L80.38792633374533,27.479999982393707L80.6212729994456,27.479999982393707L80.85461966514588,27.479999982393707L81.20463966369628,27.479999982393707L82.4880463250478,164.87999989436224L82.83806632359823,164.68371418230453L82.95473965644837,164.68371418230453L83.07141298929851,164.2911427741846L83.30475965499878,163.8985713180783L83.53810632069906,157.22485688418018L83.6547796535492,148.98085656187496L83.88812631924947,123.26743015378648L84.47149298350017,51.42685650153214L84.5881663163503,43.96800062700419L85.28820631345113,28.853998671164874L85.52155297915141,27.872572206282342L85.63822631200155,27.67628199949891L85.75489964485169,27.479999982393707L85.87157297770182,27.479999982393707L85.98824631055196,27.479999982393707L86.1049196434021,27.479999982393707L86.22159297625224,27.479999982393707L86.33826630910238,27.479999982393707L86.45493964195252,27.479999982393707L86.57161297480265,27.479999982393707L86.80495964050293,27.479999982393707L87.15497963905335,27.479999982393707L87.27165297190348,27.479999982393707L87.38832630475362,27.479999982393707L87.6216729704539,27.479999982393707L88.08836630185445,27.479999982393707L88.32171296755473,27.479999982393707L88.555059633255,27.479999982393707L89.02175296465556,27.479999982393707L89.1384262975057,27.479999982393707L89.25509963035583,27.479999982393707L89.48844629605611,27.479999982393707L89.72179296175639,27.479999982393707L89.95513962745666,27.479999982393707L90.18848629315694,27.479999982393707L90.30515962600708,27.479999982393707L90.65517962455749,27.479999982393707L90.88852629025777,27.479999982393707L91.00519962310791,27.479999982393707L91.12187295595805,27.479999982393707L91.23854628880818,27.479999982393707L91.35521962165832,27.479999982393707L91.47189295450846,27.479999982393707L91.70523962020874,27.479999982393707L91.82191295305888,27.479999982393707L92.40527961730957,27.479999982393707L92.52195295015972,27.479999982393707L92.75529961585998,27.479999982393707L92.87197294871012,27.479999982393707L92.98864628156026,27.479999982393707L93.33866628011067,164.87999989436224L93.57201294581095,164.87999989436224L93.80535961151124,164.87999989436224L94.0387062772115,164.87999989436224L94.27205294291178,164.87999989436224L94.50539960861207,164.87999989436224L94.62207294146219,164.87999989436224L94.73874627431233,164.68371418230453L95.08876627286276,164.87999989436224L95.5554596042633,164.87999989436224L95.67213293711345,164.68371418230453L95.90547960281373,164.68371418230453L96.02215293566385,164.87999989436224L96.25549960136414,164.87999989436224L96.72219293276468,164.68371418230453L97.30555959701537,164.2911427741846L98.12227292696635,154.67314254745284L98.23894625981649,149.3734287857636L98.47229292551677,141.12942948716812L98.58896625836691,134.25942785363407L98.70563959121704,130.92257214025875L98.82231292406718,122.67857181795351L98.93898625691732,113.45314093592665L99.05565958976746,102.06857101219042L99.28900625546773,86.1694287034129L99.40567958831787,81.45857020642731L99.87237291971843,52.99714539708674L99.98904625256856,48.67885912398978L100.22239291826884,42.986574162121656L100.45573958396912,38.471997682241295L100.80575958251953,33.368575151045235L101.03910624821981,30.42428756671947L101.15577958106995,30.620569583824704L101.27245291392009,29.639143118942172L101.6224729124705,28.265144430170977L101.73914624532064,28.853998671164874L101.85581957817078,28.265144430170977L101.97249291102092,28.46142644727621L102.08916624387105,28.265144430170977L102.32251290957133,27.67628199949891L102.43918624242147,27.67628199949891L102.55585957527161,27.872572206282342L102.78920624097188,27.67628199949891L102.90587957382202,27.479999982393707L103.02255290667216,27.479999982393707L103.1392262395223,27.67628199949891L103.25589957237244,27.479999982393707L103.37257290522257,27.479999982393707L103.60591957092285,27.479999982393707L103.72259290377299,27.479999982393707L104.0726129023234,27.479999982393707L104.53930623372396,27.479999982393707L104.88932623227437,27.479999982393707L105.00599956512451,164.87999989436224L105.12267289797465,164.87999989436224L105.35601956367492,164.87999989436224L105.47269289652506,164.87999989436224L105.5893662293752,164.87999989436224L105.70603956222534,164.87999989436224L105.93938622792562,164.87999989436224L106.05605956077575,164.87999989436224L106.17273289362589,164.87999989436224L106.63942622502645,164.87999989436224L107.106119556427,164.87999989436224L107.22279288927714,164.87999989436224L107.45613955497741,164.87999989436224L107.57281288782755,164.87999989436224L107.6894862206777,164.87999989436224L107.80615955352783,164.87999989436224L107.92283288637798,164.87999989436224L108.0395062192281,164.87999989436224L108.38952621777852,164.87999989436224L108.50619955062866,164.87999989436224L109.2062395477295,164.68371418230453L109.43958621342976,164.48742847024684L109.5562595462799,164.87999989436224L109.67293287913004,164.48742847024684L109.78960621198019,164.09485704613147L110.02295287768047,164.2911427741846L110.37297287623088,163.702285654007L110.48964620908102,159.38400002072865L110.83966620763142,159.38400002072865L110.95633954048157,156.63600008391188L111.0730128733317,157.02857128409076L111.30635953903199,151.92514312249094L111.53970620473225,144.07371502407437L111.88972620328268,137.20371339054032L112.00639953613282,128.9597151156546L112.23974620183309,125.62285530744019L112.58976620038351,107.76085597405854L112.70643953323365,104.03142803679457L112.82311286608378,101.08714454730789L113.05645953178406,91.46914144139238L113.1731328646342,90.29142476972643L113.28980619748434,82.63628687809327L113.5231528631846,78.51428262210155L113.63982619603475,71.84057119535092L113.75649952888489,68.11113916324786L114.33986619313558,53.97857186196924L114.80655952453613,48.48256891720638L114.92323285738627,46.91228821132995L115.15657952308655,40.82743102557316L115.38992618878683,37.686853234463996L115.6232728544871,38.07942545835263L115.73994618733724,37.686853234463996L115.85661952018738,33.56485716815047L115.97329285303752,35.135146063705065L116.08996618588766,34.546283633033L116.20663951873779,31.798286255490638L116.43998618443807,31.405714031602002L116.67333285013835,164.87999989436224L116.90667951583862,164.87999989436224L117.25669951438904,164.87999989436224L117.49004618008931,164.87999989436224L117.60671951293945,164.87999989436224L117.72339284578959,164.87999989436224L118.19008617719014,164.87999989436224L118.42343284289042,164.87999989436224L118.54010617574056,164.87999989436224L118.77345284144084,164.87999989436224L119.12347283999125,164.87999989436224L119.35681950569153,164.87999989436224L119.47349283854167,164.87999989436224L119.5901661713918,164.87999989436224L119.94018616994222,164.87999989436224L120.29020616849263,164.87999989436224L120.40687950134277,164.87999989436224L120.64022616704305,164.87999989436224L120.87357283274332,163.8985713180783L121.1069194984436,161.93571410152856L121.69028616269429,151.92514312249094L121.92363282839457,141.71828577558156L122.04030616124471,139.36285652708875L122.15697949409486,133.4742854532763L122.27365282694498,127.97828455593299L122.6236728254954,108.54600042183583L123.32371282259624,69.68142805880242L123.5570594882965,64.18542511403956L123.67373282114664,55.941424791734306L123.79040615399678,55.35257055074044L123.90707948684692,47.69742446942908L124.02375281969707,50.44543003664961L124.49044615109761,37.49057121735876L124.7237928167979,34.350001615927766L124.84046614964804,34.153711409144336L125.19048614819845,33.172284944261804L125.30715948104859,31.798286255490638L125.42383281389873,30.22799735993604L125.54050614674885,30.22799735993604L125.657179479599,29.050288877948276L125.89052614529928,29.835425136047405L126.00719947814942,28.46142644727621L126.12387281099956,29.050288877948276L126.24054614384968,29.050288877948276L126.47389280954997,28.068854223387575L126.82391280810039,27.67628199949891L127.05725947380066,28.068854223387575L127.1739328066508,28.46142644727621L127.40727947235108,27.872572206282342L127.52395280520122,27.872572206282342L127.87397280375163,27.479999982393707L127.99064613660177,27.872572206282342L128.22399280230206,27.479999982393707L128.34066613515216,164.87999989436224L129.15737946510313,159.38400002072865L129.2740527979533,156.2434283718781L129.39072613080344,151.5325708986023L129.50739946365357,151.72885701054662L129.6240727965037,147.99942804957288L129.74074612935382,143.87742891213003L129.85741946220398,140.54057115133517L130.09076612790426,130.52999991637012L130.20743946075441,119.14542999263386L130.3241127936045,109.91999911060701L130.67413279215495,86.1694287034129L130.7908061250051,75.57000322745398L130.90747945785523,63.596570873045664L131.02415279070536,59.474574806732136L131.25749945640564,48.48256891720638L131.95753945350648,35.135146063705065L132.0742127863566,32.19085847937927L132.19088611920677,32.583430703267936L132.42423278490702,31.798286255490638L132.89092611630758,28.853998671164874L133.240946114858,27.479999982393707L133.59096611340843,28.068854223387575L134.05765944480896,28.068854223387575L134.40767944335937,27.479999982393707L134.5243527762095,27.479999982393707L134.64102610905965,27.479999982393707L134.87437277475993,27.479999982393707L134.99104610761006,27.479999982393707L135.1077194404602,27.479999982393707L135.45773943901062,27.479999982393707L135.57441277186078,27.479999982393707L135.80775943756103,27.479999982393707L136.0411061032613,27.479999982393707L136.15777943611147,27.479999982393707L136.39112610181172,27.479999982393707L136.624472767512,27.479999982393707L136.74114610036216,27.479999982393707L136.97449276606244,27.479999982393707L137.2078394317627,27.479999982393707L137.32451276461285,27.479999982393707L137.44118609746297,27.479999982393707L137.55785943031313,27.479999982393707L137.9078794288635,27.479999982393707L138.02455276171366,27.479999982393707L138.14122609456382,27.479999982393707L138.4912460931142,27.479999982393707L138.60791942596435,27.479999982393707L139.54130608876548,27.479999982393707L139.89132608731586,27.479999982393707L140.00799942016602,164.87999989436224L140.2413460858663,164.87999989436224L140.47469275156658,164.87999989436224L140.5913660844167,164.87999989436224L140.9413860829671,164.87999989436224L141.05805941581727,164.87999989436224L141.29140608151755,164.87999989436224L141.40807941436768,164.87999989436224L141.5247527472178,164.87999989436224L141.64142608006796,164.87999989436224L141.99144607861837,164.68371418230453L142.92483274141946,164.87999989436224L143.04150607426962,164.87999989436224L143.15817940711975,164.87999989436224L143.39152607282003,164.87999989436224L143.6248727385203,164.68371418230453L143.74154607137044,164.87999989436224L143.8582194042206,164.87999989436224L144.09156606992084,164.87999989436224L144.32491273562113,164.87999989436224L144.44158606847128,164.87999989436224L144.5582594013214,164.68371418230453L144.90827939987182,164.48742847024684L145.02495273272197,163.11342846984752L145.1416260655721,163.50599992595383L145.7249927298228,160.75799998913706L145.95833939552307,158.59885710851603L146.0750127283732,156.8322856840013L146.30835939407348,153.88800014709508L146.42503272692363,152.31771432266981L146.6583793926239,145.44771371284554L147.35841938972473,125.03400106644631L147.47509272257486,119.53799812168342L147.70843938827514,112.07914224715547L147.94178605397542,99.71314176369762L148.40847938537598,83.8140035497592L148.64182605107627,75.17743100356532L148.87517271677652,69.28885583491379L149.1085193824768,64.38171532082296L149.34186604817708,56.13771499851774L149.57521271387736,53.58599963808061L149.6918860467275,49.46400357176708L149.80855937957764,50.24913982986618L149.92523271242777,46.323425780657885L150.04190604527793,43.37914638601032L150.50859937667846,39.64971435390723L150.74194604237874,37.49057121735876L150.85861937522887,34.350001615927766L151.5586593723297,32.19085847937927L151.79200603803,164.87999989436224L152.02535270373028,164.87999989436224L152.1420260365804,164.87999989436224L152.25869936943053,164.87999989436224L152.95873936653138,164.87999989436224L153.30875936508178,164.87999989436224L153.54210603078207,164.87999989436224L153.89212602933247,164.87999989436224L154.24214602788288,164.87999989436224L154.35881936073304,164.87999989436224L154.59216602643332,164.87999989436224L154.70883935928344,164.87999989436224L154.82551269213357,164.87999989436224L154.94218602498373,164.87999989436224L155.175532690684,164.87999989436224L155.29220602353413,164.87999989436224L155.52555268923442,164.87999989436224L155.64222602208454,164.87999989436224L155.7588993549347,164.87999989436224L156.1089193534851,164.87999989436224L156.22559268633523,164.87999989436224L156.45893935203551,164.87999989436224L157.39232601483664,164.48742847024684L157.50899934768677,164.2911427741846L157.6256726805369,164.48742847024684L157.74234601338705,164.48742847024684L158.09236601193746,164.48742847024684L158.20903934478758,164.68371418230453L158.32571267763774,163.8985713180783L158.67573267618815,164.2911427741846L158.7924060090383,163.50599992595383L158.90907934188843,162.7208570137412L159.25909934043884,162.7208570137412L160.6591793346405,156.43971397196756L161.0091993331909,152.31771432266981L161.2425459988912,151.5325708986023L161.35921933174134,150.15857118612135L161.5925659974416,147.99942804957288L161.70923933029175,145.84028593673418L162.05925932884216,140.54057115133517L162.40927932739257,132.49285694097426L162.52595266024272,132.29657082902992L162.64262599309285,131.11885620478353L162.759299325943,128.9597151156546L162.87597265879313,125.23028717839063L162.99264599164326,120.51942868140505L163.1093193244934,118.75285776874522L163.22599265734354,117.18257296802972L163.45933932304382,164.87999989436224L163.6926859887441,164.87999989436224L163.80935932159423,164.87999989436224L164.0427059872945,164.87999989436224L164.2760526529948,164.87999989436224L164.50939931869507,164.87999989436224L164.6260726515452,164.87999989436224L164.74274598439536,164.87999989436224L164.85941931724548,164.87999989436224L164.9760926500956,164.87999989436224L165.09276598294576,164.87999989436224L165.55945931434633,164.87999989436224L166.14282597859702,164.87999989436224L166.25949931144714,164.87999989436224L166.49284597714743,164.87999989436224L166.60951930999755,164.87999989436224L167.07621264139812,164.87999989436224L167.19288597424824,164.87999989436224L167.3095593070984,164.68371418230453L167.54290597279868,164.87999989436224L167.8929259713491,164.87999989436224L168.2429459698995,164.48742847024684L168.47629263559978,164.68371418230453L168.70963930130006,164.09485704613147L168.82631263415018,164.2911427741846L169.05965929985047,164.09485704613147L169.1763326327006,163.11342846984752L169.52635263125103,161.3468570453328L169.64302596410116,162.32828555763487L169.75969929695128,159.5802856208181L169.99304596265156,159.5802856208181L170.10971929550172,155.85085717169923L170.22639262835185,158.40257150842658L170.45973929405213,156.0471422599338L170.57641262690225,149.9622860978868L170.6930859597524,154.08428523532965L170.80975929260254,150.55114238630023L170.9264326254527,148.39200027346152L171.04310595830282,148.39200027346152L171.6264726225535,137.79257172637327L171.74314595540363,135.04457230141136L171.97649262110392,126.80057197910614L172.44318595250448,113.64942704787099L172.5598592853546,109.52742688671836L172.7932059510549,107.3682837501699L173.25989928245545,92.25428588916968L173.49324594815573,90.8802872003985L173.72659261385598,79.69199929376751L173.95993927955627,80.08457151765614L174.07661261240642,73.99971433189938L174.19328594525655,73.41086009090549L174.3099592781067,70.46657250657972L174.54330594380696,64.18542511403956L174.8933259423574,59.0820025828435L175.00999927520752,164.87999989436224L175.2433459409078,164.68371418230453L175.36001927375793,164.48742847024684L175.47669260660808,164.48742847024684L175.71003927230834,161.73942850143914L176.1767326037089,151.5325708986023L176.41007926940918,137.3999995024846L176.5267526022593,127.3894303149391L176.7600992679596,108.74228653378016L176.87677260080974,98.73171529881509L177.22679259936015,67.91485714614262L177.34346593221028,63.007716632051796L177.92683259646097,38.86456990612993L178.04350592931112,36.50914475247623L178.16017926216125,33.7611391852557L178.2768525950114,33.56485716815047L178.51019926071166,32.583430703267936L178.74354592641194,30.816859790608106L178.8602192592621,29.24657089505351L178.97689259211222,29.44286110183694L179.09356592496235,29.24657089505351L179.2102392578125,28.853998671164874L179.32691259066263,28.65771665405964L179.67693258921307,28.068854223387575L180.02695258776347,28.068854223387575L180.26029925346376,28.068854223387575L180.493645919164,28.068854223387575L180.61031925201416,27.479999982393707L180.7269925848643,27.67628199949891L180.84366591771445,27.67628199949891L180.96033925056457,27.67628199949891L181.42703258196514,27.479999982393707L181.89372591336567,27.872572206282342L182.12707257906595,27.479999982393707L182.2437459119161,27.479999982393707L182.59376591046652,27.479999982393707L182.71043924331664,27.479999982393707L182.8271125761668,27.67628199949891L183.1771325747172,27.479999982393707L183.5271525732676,27.67628199949891L183.64382590611777,27.479999982393707L183.7604992389679,27.67628199949891L183.99384590466818,27.479999982393707L184.1105192375183,27.479999982393707L184.22719257036846,27.479999982393707L184.57721256891887,27.67628199949891L184.81055923461915,27.479999982393707L184.92723256746928,27.479999982393707L185.04390590031943,27.479999982393707L185.16057923316956,27.479999982393707L185.27725256601968,27.479999982393707L185.39392589886984,27.479999982393707L185.62727256457012,27.479999982393707L185.74394589742025,27.479999982393707L186.09396589597065,27.479999982393707L186.67733256022134,164.87999989436224L188.077412554423,157.61742859621395L188.19408588727316,153.10285672302757L188.3107592201233,151.33628581036774L188.42743255297344,146.42914222514761L188.89412588437398,116.59371463219675L189.24414588292439,98.92800141075942L189.36081921577454,91.07656921750373L189.59416588147482,74.78485877967668L189.71083921432495,67.91485714614262L189.82751254717508,67.91485714614262L189.94418588002523,56.922859446295035L190.1775325457255,51.23057448442691L190.4108792114258,44.753145074781486L190.52755254427592,44.36057285089285L190.64422587712605,40.43485880168453L190.87757254282633,37.29428920025353L190.99424587567648,36.11657252858757L191.1109192085266,34.153711409144336L191.3442658742269,33.368575151045235L191.57761253992717,31.405714031602002L192.277652537028,29.835425136047405L192.51099920272827,30.031715342830807L193.09436586697896,28.853998671164874L193.2110391998291,28.068854223387575L193.67773253122965,27.872572206282342L194.26109919548034,27.67628199949891L194.3777725283305,27.872572206282342L194.84446585973103,27.872572206282342L195.3111591911316,27.67628199949891L195.661179189682,27.67628199949891L196.0111991882324,27.479999982393707L196.12787252108257,27.67628199949891L196.2445458539327,27.479999982393707L196.5945658524831,27.479999982393707L196.71123918533326,27.479999982393707L197.06125918388366,27.479999982393707L197.29460584958395,27.479999982393707L197.41127918243407,27.479999982393707L197.52795251528423,27.67628199949891L198.3446658452352,164.87999989436224L198.46133917808532,164.87999989436224L198.57801251093545,164.87999989436224L198.6946858437856,164.87999989436224L198.9280325094859,164.87999989436224L199.04470584233601,164.87999989436224L199.16137917518617,164.87999989436224L199.2780525080363,164.87999989436224L199.39472584088642,164.87999989436224L199.51139917373658,164.87999989436224L199.6280725065867,164.68371418230453L199.74474583943686,164.87999989436224L199.861419172287,164.87999989436224L200.2114391708374,164.68371418230453L200.44478583653768,163.50599992595383L201.02815250078837,163.3097141979007L201.14482583363852,163.3097141979007L201.26149916648865,162.7208570137412L201.49484583218893,159.77657122090753L202.3115591621399,151.33628581036774L202.54490582784018,148.7845714736404L203.12827249209087,139.16657041514446L203.244945824941,136.02600081371344L203.71163915634156,123.46371217089171L203.94498582204184,113.45314093592665L204.06165915489197,111.09771578227296L204.29500582059225,105.7979989494544L204.41167915344238,101.67599878830177L204.64502581914266,94.21713881893473L204.7616991519928,93.82457478472428L205.46173914909363,76.94400191622515L205.57841248194376,75.96257545134262L205.6950858147939,73.41086009090549L206.2784524790446,60.259711064831265L206.39512581189473,61.4374277364972L207.44518580754598,47.69742446942908L207.5618591403961,46.91228821132995L207.91187913894655,44.753145074781486L208.02855247179667,43.57542840311555L208.1452258046468,42.005139507560955L208.37857247034708,39.64971435390723L208.61191913604736,39.25714213001859L208.84526580174764,37.49057121735876L209.19528580029805,35.5277182875937L209.3119591331482,35.72400030469893L209.54530579884846,35.135146063705065L209.66197913169862,33.172284944261804L209.8953257973989,37.0979989934701L210.12867246309915,164.87999989436224L210.2453457959493,164.68371418230453L210.4786924616496,164.48742847024684L210.5953657944997,164.48742847024684L211.06205912590028,164.48742847024684L211.1787324587504,164.2911427741846L211.41207912445068,162.7208570137412L211.5287524573008,163.3097141979007L211.64542579015097,162.91714274179435L211.7620991230011,162.52457141365176L211.99544578870137,161.73942850143914L212.1121191215515,161.93571410152856L212.22879245440166,159.97285682099698L212.34546578725178,158.00999979639283L212.81215911865235,149.3734287857636L213.04550578435263,148.39200027346152L213.16217911720275,147.99942804957288L213.2788524500529,141.71828577558156L213.51219911575316,136.8111432140712L213.74554578145344,132.29657082902992L213.97889244715373,124.44514273061334L214.212239112854,119.73428423362775L214.32891244570413,112.07914224715547L214.4455857785543,110.50885744643998L214.67893244425457,100.89085843536357L214.7956057771047,99.12428752270374L214.91227910995482,96.57257216226662L215.02895244280498,92.25428588916968L215.1456257756551,89.3099983048439L215.26229910850526,86.7582829444068L215.4956457742055,76.94400191622515L215.61231910705567,79.88828950055091L215.96233910560608,65.16685976860026L216.0790124384562,66.93343068126009L216.31235910415649,60.06342904772603L216.42903243700664,55.941424791734306L216.77905243555705,56.13771499851774L216.89572576840717,53.389717620975375L217.01239910125733,49.66028558887231L217.12907243410746,47.108570228435184L217.2457457669576,48.875141141095014L217.47909243265786,44.753145074781486L217.94578576405843,40.43485880168453L218.1791324297587,41.61257547335049L218.29580576260884,37.0979989934701L218.412479095459,39.453432336801995L218.7624990940094,36.3128545456928L218.87917242685953,34.938855856921634L219.1125190925598,34.938855856921634L219.57921242396037,32.97600292715657L219.6958857568105,32.583430703267936L219.81255908966065,32.387140496484506L219.92923242251078,32.583430703267936L220.16257908821106,31.01314180771334L220.62927241961162,30.22799735993604L220.74594575246175,31.01314180771334L220.97929241816203,32.19085847937927L221.09596575101216,30.816859790608106L221.2126390838623,28.853998671164874L221.32931241671244,30.816859790608106L221.56265908241272,28.853998671164874L221.91267908096313,164.87999989436224L222.02935241381329,164.87999989436224L222.1460257466634,164.87999989436224L222.26269907951354,164.87999989436224L222.3793724123637,164.87999989436224L222.7293924109141,164.87999989436224L222.84606574376423,164.87999989436224L223.3127590751648,164.09485704613147L223.42943240801495,162.7208570137412L223.6627790737152,163.11342846984752L223.77945240656535,162.13199995754545L223.89612573941548,163.11342846984752L224.36281907081604,157.02857128409076L224.71283906936645,153.2991428349719L224.94618573506673,145.44771371284554L225.29620573361714,138.97028635061966L225.4128790664673,135.24085636593617L225.52955239931742,134.84828618946705L225.64622573216755,132.8854291648629L225.7628990650177,127.78199844398866L225.996245730718,124.44514273061334L226.1129190635681,119.14542999263386L226.22959239641824,120.32314256946071L226.57961239496868,107.3682837501699L226.6962857278188,99.5168556517533L226.92963239351909,97.35771251520482L227.0463057263692,93.23571235405221L227.16297905921937,86.9545731511902L227.51299905776978,78.31800060499631L227.74634572347006,71.25171695435702L227.86301905632018,76.74771170944172L227.97969238917034,66.14828623348279L228.09636572202047,64.5779973379282L228.91307905197144,52.60457317319808L229.02975238482156,52.21200094930944L229.379772383372,49.26771336498368L229.9631390476227,42.59400193823302L230.42983237902322,38.27571566513606L230.6631790447235,38.07942545835263L230.8965257104238,38.27571566513606L231.12987237612407,37.49057121735876L231.2465457089742,38.07942545835263L231.36321904182435,36.11657252858757L231.47989237467448,36.3128545456928L231.94658570607504,34.7425738398164L232.06325903892517,34.7425738398164L232.17993237177532,34.546283633033L232.41327903747558,32.583430703267936L232.52995237032573,31.99456827259587L232.64662570317586,33.7611391852557L233.11331903457642,31.20943201449677L233.3466657002767,164.87999989436224L233.58001236597696,163.702285654007L233.81335903167724,158.40257150842658L233.9300323645274,157.61742859621395L234.16337903022767,160.36542853303072L234.6300723616282,152.31771432266981L234.8634190273285,139.75542875097742L234.98009236017862,131.51142842867216L235.33011235872905,108.54600042183583L235.68013235727946,90.29142476972643L236.14682568868002,65.95199602669936L236.38017235438028,57.70800389407232L236.49684568723043,54.174853879074476L236.84686568578084,47.50114245232385L237.3135590171814,38.6682878890247L237.43023235003153,38.471997682241295L237.5469056828817,39.06086011291336L237.6635790157318,35.3314280808103L238.01359901428222,33.56485716815047L238.13027234713238,33.9574293920391L238.2469456799825,32.387140496484506L238.48029234568278,31.01314180771334L238.5969656785329,31.405714031602002L238.71363901138307,31.798286255490638L238.94698567708335,31.405714031602002L239.06365900993347,30.816859790608106L239.41367900848388,29.050288877948276L239.53035234133404,30.22799735993604L239.7636990070343,29.835425136047405L239.99704567273457,29.050288877948276L240.11371900558473,28.853998671164874L240.23039233843485,29.24657089505351L241.04710566838583,28.65771665405964L241.16377900123595,28.46142644727621L241.2804523340861,28.265144430170977L241.39712566693623,28.068854223387575L242.09716566403708,27.872572206282342L242.2138389968872,28.265144430170977L242.33051232973733,27.872572206282342L242.4471856625875,27.872572206282342L242.5638589954376,27.67628199949891L242.7972056611379,27.479999982393707L243.1472256596883,27.479999982393707L243.49724565823874,27.67628199949891L243.96393898963927,27.67628199949891L244.08061232248943,27.67628199949891L244.19728565533956,27.872572206282342L244.3139589881897,27.67628199949891L244.43063232103984,27.67628199949891L244.66397898674012,28.068854223387575L244.78065231959025,27.479999982393707L245.2473456509908,164.87999989436224L245.59736564954122,159.5802856208181L245.71403898239134,157.22485688418018L246.06405898094178,155.85085717169923L246.1807323137919,147.01800056098057L246.29740564664206,130.72628602831443L246.4140789794922,120.51942868140505L246.53075231234232,109.13485875766881L246.7640989780426,77.33657414011378L246.88077231089275,71.05542674757362L246.99744564374288,60.259711064831265L247.114118976593,54.37114408585791L247.23079230944316,47.89371467621248L247.69748564084372,35.920282321804166L247.81415897369385,32.387140496484506L247.93083230654398,31.798286255490638L248.2808523050944,28.853998671164874L248.51419897079467,29.050288877948276L248.63087230364482,28.068854223387575L248.74754563649495,28.46142644727621L248.98089230219523,28.265144430170977L249.09756563504536,28.65771665405964L249.2142389678955,27.872572206282342L249.4475856335958,28.068854223387575L249.56425896644592,27.872572206282342L249.91427896499633,27.872572206282342L250.1476256306966,27.67628199949891L250.3809722963969,27.872572206282342L250.49764562924702,27.479999982393707L250.7309922949473,27.67628199949891L251.0810122934977,27.67628199949891L251.314358959198,27.479999982393707L251.43103229204814,27.479999982393707L251.54770562489827,27.479999982393707L251.78105229059855,27.479999982393707L252.01439895629883,27.479999982393707L252.13107228914896,27.479999982393707L252.24774562199912,27.479999982393707L252.71443895339965,27.67628199949891L252.8311122862498,27.67628199949891L253.0644589519501,27.479999982393707L253.29780561765034,27.479999982393707L253.88117228190103,27.479999982393707L254.3478656133016,27.67628199949891L254.46453894615172,27.479999982393707L254.58121227900187,27.479999982393707L254.697885611852,27.479999982393707L256.09796560605366,27.479999982393707L256.3313122717539,27.67628199949891L256.5646589374542,27.479999982393707" fill="none"></path></g></g></g></g></g></g><g transform="translate(49, 178)" clip-path="url(#clip_1)"><clipPath id="clip_1"><rect width="280" height="21"></rect></clipPath><g><g><line x1="0" y1="0" x2="0" y2="5" style="visibility: inherit;" fill="rgb(0, 0, 0)" stroke="rgb(204, 204, 204)" stroke-width="1px"></line><line x1="23.334666570027668" y1="0" x2="23.334666570027668" y2="5" style="visibility: inherit;" fill="rgb(0, 0, 0)" stroke="rgb(204, 204, 204)" stroke-width="1px"></line><line x1="46.669333140055336" y1="0" x2="46.669333140055336" y2="5" style="visibility: inherit;" fill="rgb(0, 0, 0)" stroke="rgb(204, 204, 204)" stroke-width="1px"></line><line x1="70.00399971008301" y1="0" x2="70.00399971008301" y2="5" style="visibility: inherit;" fill="rgb(0, 0, 0)" stroke="rgb(204, 204, 204)" stroke-width="1px"></line><line x1="93.33866628011067" y1="0" x2="93.33866628011067" y2="5" style="visibility: inherit;" fill="rgb(0, 0, 0)" stroke="rgb(204, 204, 204)" stroke-width="1px"></line><line x1="116.67333285013835" y1="0" x2="116.67333285013835" y2="5" style="visibility: inherit;" fill="rgb(0, 0, 0)" stroke="rgb(204, 204, 204)" stroke-width="1px"></line><line x1="140.00799942016602" y1="0" x2="140.00799942016602" y2="5" style="visibility: inherit;" fill="rgb(0, 0, 0)" stroke="rgb(204, 204, 204)" stroke-width="1px"></line><line x1="163.3426659901937" y1="0" x2="163.3426659901937" y2="5" style="visibility: inherit;" fill="rgb(0, 0, 0)" stroke="rgb(204, 204, 204)" stroke-width="1px"></line><line x1="186.67733256022134" y1="0" x2="186.67733256022134" y2="5" style="visibility: inherit;" fill="rgb(0, 0, 0)" stroke="rgb(204, 204, 204)" stroke-width="1px"></line><line x1="210.01199913024902" y1="0" x2="210.01199913024902" y2="5" style="visibility: inherit;" fill="rgb(0, 0, 0)" stroke="rgb(204, 204, 204)" stroke-width="1px"></line><line x1="233.3466657002767" y1="0" x2="233.3466657002767" y2="5" style="visibility: inherit;" fill="rgb(0, 0, 0)" stroke="rgb(204, 204, 204)" stroke-width="1px"></line><line x1="256.6813322703043" y1="0" x2="256.6813322703043" y2="5" style="visibility: inherit;" fill="rgb(0, 0, 0)" stroke="rgb(204, 204, 204)" stroke-width="1px"></line><line x1="280.01599884033203" y1="0" x2="280.01599884033203" y2="5" style="visibility: inherit;" fill="rgb(0, 0, 0)" stroke="rgb(204, 204, 204)" stroke-width="1px"></line></g><g transform="translate(0, 8)"><text style="text-anchor: middle; visibility: hidden; font-family: &quot;Helvetica Neue&quot;, sans-serif; font-size: 12px; font-weight: 200;" x="0" y="0" dx="0em" dy="0.95em" fill="rgb(50, 49, 63)" stroke="none" stroke-width="1px">-200</text><text style="text-anchor: middle; visibility: hidden; font-family: &quot;Helvetica Neue&quot;, sans-serif; font-size: 12px; font-weight: 200;" x="23.334666570027668" y="0" dx="0em" dy="0.95em" fill="rgb(50, 49, 63)" stroke="none" stroke-width="1px">0</text><text style="text-anchor: middle; visibility: hidden; font-family: &quot;Helvetica Neue&quot;, sans-serif; font-size: 12px; font-weight: 200;" x="46.669333140055336" y="0" dx="0em" dy="0.95em" fill="rgb(50, 49, 63)" stroke="none" stroke-width="1px">200</text><text style="text-anchor: middle; visibility: hidden; font-family: &quot;Helvetica Neue&quot;, sans-serif; font-size: 12px; font-weight: 200;" x="70.00399971008301" y="0" dx="0em" dy="0.95em" fill="rgb(50, 49, 63)" stroke="none" stroke-width="1px">400</text><text style="text-anchor: middle; visibility: hidden; font-family: &quot;Helvetica Neue&quot;, sans-serif; font-size: 12px; font-weight: 200;" x="93.33866628011067" y="0" dx="0em" dy="0.95em" fill="rgb(50, 49, 63)" stroke="none" stroke-width="1px">600</text><text style="text-anchor: middle; visibility: hidden; font-family: &quot;Helvetica Neue&quot;, sans-serif; font-size: 12px; font-weight: 200;" x="116.67333285013835" y="0" dx="0em" dy="0.95em" fill="rgb(50, 49, 63)" stroke="none" stroke-width="1px">800</text><text style="text-anchor: middle; visibility: hidden; font-family: &quot;Helvetica Neue&quot;, sans-serif; font-size: 12px; font-weight: 200;" x="140.00799942016602" y="0" dx="0em" dy="0.95em" fill="rgb(50, 49, 63)" stroke="none" stroke-width="1px">1k</text><text style="text-anchor: middle; visibility: hidden; font-family: &quot;Helvetica Neue&quot;, sans-serif; font-size: 12px; font-weight: 200;" x="163.3426659901937" y="0" dx="0em" dy="0.95em" fill="rgb(50, 49, 63)" stroke="none" stroke-width="1px">1.2k</text><text style="text-anchor: middle; visibility: hidden; font-family: &quot;Helvetica Neue&quot;, sans-serif; font-size: 12px; font-weight: 200;" x="186.67733256022134" y="0" dx="0em" dy="0.95em" fill="rgb(50, 49, 63)" stroke="none" stroke-width="1px">1.4k</text><text style="text-anchor: middle; visibility: hidden; font-family: &quot;Helvetica Neue&quot;, sans-serif; font-size: 12px; font-weight: 200;" x="210.01199913024902" y="0" dx="0em" dy="0.95em" fill="rgb(50, 49, 63)" stroke="none" stroke-width="1px">1.6k</text><text style="text-anchor: middle; visibility: hidden; font-family: &quot;Helvetica Neue&quot;, sans-serif; font-size: 12px; font-weight: 200;" x="233.3466657002767" y="0" dx="0em" dy="0.95em" fill="rgb(50, 49, 63)" stroke="none" stroke-width="1px">1.8k</text><text style="text-anchor: middle; visibility: hidden; font-family: &quot;Helvetica Neue&quot;, sans-serif; font-size: 12px; font-weight: 200;" x="256.6813322703043" y="0" dx="0em" dy="0.95em" fill="rgb(50, 49, 63)" stroke="none" stroke-width="1px">2k</text><text style="text-anchor: middle; visibility: hidden; font-family: &quot;Helvetica Neue&quot;, sans-serif; font-size: 12px; font-weight: 200;" x="280.01599884033203" y="0" dx="0em" dy="0.95em" fill="rgb(50, 49, 63)" stroke="none" stroke-width="1px">2.2k</text></g><line x1="0" y1="0" x2="280.01599884033203" y2="0" fill="rgb(0, 0, 0)" stroke="rgb(204, 204, 204)" stroke-width="1px"></line></g></g></g></g></svg>