<svg viewBox="0 0 330 200" xmlns="http://www.w3.org/2000/svg"><g><g><g><g><g><line x1="49.98400115966797" y1="178.61999988555908" x2="44.98400115966797" y2="178.61999988555908" style="visibility: inherit;" fill="rgb(0, 0, 0)" stroke="rgb(204, 204, 204)" stroke-width="1px"></line><line x1="49.98400115966797" y1="164.87999989436224" x2="44.98400115966797" y2="164.87999989436224" style="visibility: inherit;" fill="rgb(0, 0, 0)" stroke="rgb(204, 204, 204)" stroke-width="1px"></line><line x1="49.98400115966797" y1="151.13999990316537" x2="44.98400115966797" y2="151.13999990316537" style="visibility: inherit;" fill="rgb(0, 0, 0)" stroke="rgb(204, 204, 204)" stroke-width="1px"></line><line x1="49.98400115966797" y1="137.3999999119685" x2="44.98400115966797" y2="137.3999999119685" style="visibility: inherit;" fill="rgb(0, 0, 0)" stroke="rgb(204, 204, 204)" stroke-width="1px"></line><line x1="49.98400115966797" y1="123.65999992077167" x2="44.98400115966797" y2="123.65999992077167" style="visibility: inherit;" fill="rgb(0, 0, 0)" stroke="rgb(204, 204, 204)" stroke-width="1px"></line><line x1="49.98400115966797" y1="109.91999992957481" x2="44.98400115966797" y2="109.91999992957481" style="visibility: inherit;" fill="rgb(0, 0, 0)" stroke="rgb(204, 204, 204)" stroke-width="1px"></line><line x1="49.98400115966797" y1="96.17999993837796" x2="44.98400115966797" y2="96.17999993837796" style="visibility: inherit;" fill="rgb(0, 0, 0)" stroke="rgb(204, 204, 204)" stroke-width="1px"></line><line x1="49.98400115966797" y1="82.43999994718112" x2="44.98400115966797" y2="82.43999994718112" style="visibility: inherit;" fill="rgb(0, 0, 0)" stroke="rgb(204, 204, 204)" stroke-width="1px"></line><line x1="49.98400115966797" y1="68.69999995598425" x2="44.98400115966797" y2="68.69999995598425" style="visibility: inherit;" fill="rgb(0, 0, 0)" stroke="rgb(204, 204, 204)" stroke-width="1px"></line><line x1="49.98400115966797" y1="54.959999964787414" x2="44.98400115966797" y2="54.959999964787414" style="visibility: inherit;" fill="rgb(0, 0, 0)" stroke="rgb(204, 204, 204)" stroke-width="1px"></line><line x1="49.98400115966797" y1="41.21999997359055" x2="44.98400115966797" y2="41.21999997359055" style="visibility: inherit;" fill="rgb(0, 0, 0)" stroke="rgb(204, 204, 204)" stroke-width="1px"></line><line x1="49.98400115966797" y1="27.479999982393707" x2="44.98400115966797" y2="27.479999982393707" style="visibility: inherit;" fill="rgb(0, 0, 0)" stroke="rgb(204, 204, 204)" stroke-width="1px"></line><line x1="49.98400115966797" y1="13.73999999119684" x2="44.98400115966797" y2="13.73999999119684" style="visibility: inherit;" fill="rgb(0, 0, 0)" stroke="rgb(204, 204, 204)" stroke-width="1px"></line><line x1="49.98400115966797" y1="0" x2="44.98400115966797" y2="0" style="visibility: inherit;" fill="rgb(0, 0, 0)" stroke="rgb(204, 204, 204)" stroke-width="1px"></line></g><g transform="translate(39.98400115966797, 0)"><text style="text-anchor: end; visibility: hidden; font-family: &quot;Helvetica Neue&quot;, sans-serif; font-size: 12px; font-weight: 200;" x="0" y="178.61999988555908" dx="0em" dy="0.3em" fill="rgb(50, 49, 63)" stroke="none" stroke-width="1px">-0.5</text><text style="text-anchor: end; visibility: inherit; font-family: &quot;Helvetica Neue&quot;, sans-serif; font-size: 12px; font-weight: 200;" x="0" y="164.87999989436224" dx="0em" dy="0.3em" fill="rgb(50, 49, 63)" stroke="none" stroke-width="1px">0</text><text style="text-anchor: end; visibility: hidden; font-family: &quot;Helvetica Neue&quot;, sans-serif; font-size: 12px; font-weight: 200;" x="0" y="151.13999990316537" dx="0em" dy="0.3em" fill="rgb(50, 49, 63)" stroke="none" stroke-width="1px">0.5</text><text style="text-anchor: end; visibility: inherit; font-family: &quot;Helvetica Neue&quot;, sans-serif; font-size: 12px; font-weight: 200;" x="0" y="137.3999999119685" dx="0em" dy="0.3em" fill="rgb(50, 49, 63)" stroke="none" stroke-width="1px">1</text><text style="text-anchor: end; visibility: hidden; font-family: &quot;Helvetica Neue&quot;, sans-serif; font-size: 12px; font-weight: 200;" x="0" y="123.65999992077167" dx="0em" dy="0.3em" fill="rgb(50, 49, 63)" stroke="none" stroke-width="1px">1.5</text><text style="text-anchor: end; visibility: inherit; font-family: &quot;Helvetica Neue&quot;, sans-serif; font-size: 12px; font-weight: 200;" x="0" y="109.91999992957481" dx="0em" dy="0.3em" fill="rgb(50, 49, 63)" stroke="none" stroke-width="1px">2</text><text style="text-anchor: end; visibility: hidden; font-family: &quot;Helvetica Neue&quot;, sans-serif; font-size: 12px; font-weight: 200;" x="0" y="96.17999993837796" dx="0em" dy="0.3em" fill="rgb(50, 49, 63)" stroke="none" stroke-width="1px">2.5</text><text style="text-anchor: end; visibility: inherit; font-family: &quot;Helvetica Neue&quot;, sans-serif; font-size: 12px; font-weight: 200;" x="0" y="82.43999994718112" dx="0em" dy="0.3em" fill="rgb(50, 49, 63)" stroke="none" stroke-width="1px">3</text><text style="text-anchor: end; visibility: hidden; font-family: &quot;Helvetica Neue&quot;, sans-serif; font-size: 12px; font-weight: 200;" x="0" y="68.69999995598425" dx="0em" dy="0.3em" fill="rgb(50, 49, 63)" stroke="none" stroke-width="1px">3.5</text><text style="text-anchor: end; visibility: inherit; font-family: &quot;Helvetica Neue&quot;, sans-serif; font-size: 12px; font-weight: 200;" x="0" y="54.959999964787414" dx="0em" dy="0.3em" fill="rgb(50, 49, 63)" stroke="none" stroke-width="1px">4</text><text style="text-anchor: end; visibility: hidden; font-family: &quot;Helvetica Neue&quot;, sans-serif; font-size: 12px; font-weight: 200;" x="0" y="41.21999997359055" dx="0em" dy="0.3em" fill="rgb(50, 49, 63)" stroke="none" stroke-width="1px">4.5</text><text style="text-anchor: end; visibility: inherit; font-family: &quot;Helvetica Neue&quot;, sans-serif; font-size: 12px; font-weight: 200;" x="0" y="27.479999982393707" dx="0em" dy="0.3em" fill="rgb(50, 49, 63)" stroke="none" stroke-width="1px">5</text><text style="text-anchor: end; visibility: hidden; font-family: &quot;Helvetica Neue&quot;, sans-serif; font-size: 12px; font-weight: 200;" x="0" y="13.73999999119684" dx="0em" dy="0.3em" fill="rgb(50, 49, 63)" stroke="none" stroke-width="1px">5.5</text><text style="text-anchor: end; visibility: hidden; font-family: &quot;Helvetica Neue&quot;, sans-serif; font-size: 12px; font-weight: 200;" x="0" y="0" dx="0em" dy="0.3em" fill="rgb(50, 49, 63)" stroke="none" stroke-width="1px">6</text></g><line x1="49.98400115966797" y1="0" x2="49.98400115966797" y2="178.61999988555908" fill="rgb(0, 0, 0)" stroke="rgb(204, 204, 204)" stroke-width="1px"></line></g></g><g transform="translate(49, 0)" clip-path="url(#clip_0)"><clipPath id="clip_0"><rect width="280" height="178"></rect></clipPath><g><g><g><line x1="0" y1="0" x2="0" y2="178.61999988555908" fill="rgb(0, 0, 0)" stroke="rgb(60, 60, 60)" stroke-width="1px" opacity="0.25"></line><line x1="23.334666570027668" y1="0" x2="23.334666570027668" y2="178.61999988555908" fill="rgb(0, 0, 0)" stroke="rgb(60, 60, 60)" stroke-width="1px" opacity="0.25"></line><line x1="46.669333140055336" y1="0" x2="46.669333140055336" y2="178.61999988555908" fill="rgb(0, 0, 0)" stroke="rgb(60, 60, 60)" stroke-width="1px" opacity="0.25"></line><line x1="70.00399971008301" y1="0" x2="70.00399971008301" y2="178.61999988555908" fill="rgb(0, 0, 0)" stroke="rgb(60, 60, 60)" stroke-width="1px" opacity="0.25"></line><line x1="93.33866628011067" y1="0" x2="93.33866628011067" y2="178.61999988555908" fill="rgb(0, 0, 0)" stroke="rgb(60, 60, 60)" stroke-width="1px" opacity="0.25"></line><line x1="116.67333285013835" y1="0" x2="116.67333285013835" y2="178.61999988555908" fill="rgb(0, 0, 0)" stroke="rgb(60, 60, 60)" stroke-width="1px" opacity="0.25"></line><line x1="140.00799942016602" y1="0" x2="140.00799942016602" y2="178.61999988555908" fill="rgb(0, 0, 0)" stroke="rgb(60, 60, 60)" stroke-width="1px" opacity="0.25"></line><line x1="163.3426659901937" y1="0" x2="163.3426659901937" y2="178.61999988555908" fill="rgb(0, 0, 0)" stroke="rgb(60, 60, 60)" stroke-width="1px" opacity="0.25"></line><line x1="186.67733256022134" y1="0" x2="186.67733256022134" y2="178.61999988555908" fill="rgb(0, 0, 0)" stroke="rgb(60, 60, 60)" stroke-width="1px" opacity="0.25"></line><line x1="210.01199913024902" y1="0" x2="210.01199913024902" y2="178.61999988555908" fill="rgb(0, 0, 0)" stroke="rgb(60, 60, 60)" stroke-width="1px" opacity="0.25"></line><line x1="233.3466657002767" y1="0" x2="233.3466657002767" y2="178.61999988555908" fill="rgb(0, 0, 0)" stroke="rgb(60, 60, 60)" stroke-width="1px" opacity="0.25"></line><line x1="256.6813322703043" y1="0" x2="256.6813322703043" y2="178.61999988555908" fill="rgb(0, 0, 0)" stroke="rgb(60, 60, 60)" stroke-width="1px" opacity="0.25"></line><line x1="280.01599884033203" y1="0" x2="280.01599884033203" y2="178.61999988555908" fill="rgb(0, 0, 0)" stroke="rgb(60, 60, 60)" stroke-width="1px" opacity="0.25"></line></g><g><line x1="0" y1="178.61999988555908" x2="280.01599884033203" y2="178.61999988555908" fill="rgb(0, 0, 0)" stroke="rgb(60, 60, 60)" stroke-width="1px" opacity="0.25"></line><line x1="0" y1="164.87999989436224" x2="280.01599884033203" y2="164.87999989436224" fill="rgb(0, 0, 0)" stroke="rgb(60, 60, 60)" stroke-width="1px" opacity="0.25"></line><line x1="0" y1="151.13999990316537" x2="280.01599884033203" y2="151.13999990316537" fill="rgb(0, 0, 0)" stroke="rgb(60, 60, 60)" stroke-width="1px" opacity="0.25"></line><line x1="0" y1="137.3999999119685" x2="280.01599884033203" y2="137.3999999119685" fill="rgb(0, 0, 0)" stroke="rgb(60, 60, 60)" stroke-width="1px" opacity="0.25"></line><line x1="0" y1="123.65999992077167" x2="280.01599884033203" y2="123.65999992077167" fill="rgb(0, 0, 0)" stroke="rgb(60, 60, 60)" stroke-width="1px" opacity="0.25"></line><line x1="0" y1="109.91999992957481" x2="280.01599884033203" y2="109.91999992957481" fill="rgb(0, 0, 0)" stroke="rgb(60, 60, 60)" stroke-width="1px" opacity="0.25"></line><line x1="0" y1="96.17999993837796" x2="280.01599884033203" y2="96.17999993837796" fill="rgb(0, 0, 0)" stroke="rgb(60, 60, 60)" stroke-width="1px" opacity="0.25"></line><line x1="0" y1="82.43999994718112" x2="280.01599884033203" y2="82.43999994718112" fill="rgb(0, 0, 0)" stroke="rgb(60, 60, 60)" stroke-width="1px" opacity="0.25"></line><line x1="0" y1="68.69999995598425" x2="280.01599884033203" y2="68.69999995598425" fill="rgb(0, 0, 0)" stroke="rgb(60, 60, 60)" stroke-width="1px" opacity="0.25"></line><line x1="0" y1="54.959999964787414" x2="280.01599884033203" y2="54.959999964787414" fill="rgb(0, 0, 0)" stroke="rgb(60, 60, 60)" stroke-width="1px" opacity="0.25"></line><line x1="0" y1="41.21999997359055" x2="280.01599884033203" y2="41.21999997359055" fill="rgb(0, 0, 0)" stroke="rgb(60, 60, 60)" stroke-width="1px" opacity="0.25"></line><line x1="0" y1="27.479999982393707" x2="280.01599884033203" y2="27.479999982393707" fill="rgb(0, 0, 0)" stroke="rgb(60, 60, 60)" stroke-width="1px" opacity="0.25"></line><line x1="0" y1="13.73999999119684" x2="280.01599884033203" y2="13.73999999119684" fill="rgb(0, 0, 0)" stroke="rgb(60, 60, 60)" stroke-width="1px" opacity="0.25"></line><line x1="0" y1="0" x2="280.01599884033203" y2="0" fill="rgb(0, 0, 0)" stroke="rgb(60, 60, 60)" stroke-width="1px" opacity="0.25"></line></g></g></g><g><g><line x1="0" y1="164.87999989436224" x2="280.01599884033203" y2="164.87999989436224" fill="rgb(0, 0, 0)" stroke="rgb(153, 153, 153)" stroke-width="1.5px"></line></g></g><g><g><line x1="23.334666570027668" y1="0" x2="23.334666570027668" y2="178.61999988555908" fill="rgb(0, 0, 0)" stroke="rgb(153, 153, 153)" stroke-width="1.5px"></line></g></g><g><g><g><g><g><path style="fill: none;" stroke="rgb(255, 112, 67)" stroke-width="2px" d="M23.91803323427836,164.85265727172708L24.0347065671285,164.85590942872497L24.50139989852905,164.8494095780965L24.618073231379192,164.83875595431738L24.851419897079467,164.8473936065164L24.968093229929607,164.85571731472888L25.084766562779745,164.86172322640246L25.318113228480023,164.86659475836035L25.43478656133016,164.86987934320555L25.551459894180297,164.8719714975461L25.668133227030435,164.87360555006157L26.13482655843099,164.87502722774053L27.184886554082233,164.87606912497216L27.301559886932374,164.87676364839604L27.53490655263265,164.87726388306962L27.884926551183064,164.8775407830918L28.001599884033205,164.8777959204537L28.23494654973348,164.87796239254806L28.468293215433757,164.87810102243805L28.584966548283894,164.8779742387305L28.818313213984172,164.8781542384554L29.051659879684447,164.87813619483697L29.168333212534588,164.87793765527272L29.518353211085003,164.87814289515669L29.63502654393514,164.87812968433394L29.751699876785278,164.87824610698294L29.86837320963542,164.8782268428193L29.985046542485556,164.87824549754666L30.33506654103597,164.8783132344461L30.45173987388611,164.87832784938286L30.685086539586386,164.8783821687551L30.91843320528666,164.87843773114338L31.0351065381368,164.87839523766831L31.15177987098694,164.8784863921169L31.268453203837076,164.87858909461423L31.61847320238749,164.87854861813568L31.73514653523763,164.878511093442L31.85181986808777,164.87849223878828L31.968493200937907,164.87841329628932L32.20183986663819,164.87844944051474L32.551859865188604,164.8784581877583L33.13522652943929,164.87856961132331L33.25189986228943,164.87864643747517L33.36857319513957,164.87857959510472L33.4852465279897,164.87855804926073L33.60191986083984,164.87861979002554L33.71859319368998,164.87856372872034L34.30195985794067,164.87866945094828L35.23534652074178,104.6668897993202L35.585366519292194,124.99010459310449L35.702039852142335,139.9495090123218L36.5187531820933,149.86809150383408L36.868773180643714,155.84270375619855L37.102119846343996,159.43219946181944L37.21879317919413,161.58779379636613L37.33546651204427,162.88607906059352L37.80215984344483,163.6671541295409L37.91883317629496,164.1376750461296L38.0355065091451,164.42083706917307L38.385526507695516,164.59242362038387L38.50219984054566,164.69527101498684L38.85221983909607,164.75895903644687L39.31891317049662,164.7969730864731L39.552259836196896,164.82026660328438L39.78560650189718,164.83435805219204L39.90227983474731,164.84366685544228L40.01895316759745,164.84906427321283L40.13562650044759,164.85196694515002L40.60231983184814,164.854686896226L40.835666497548424,164.85657288893515L41.18568649609884,164.85809098042716L41.30235982894897,164.85855230132745L41.41903316179911,164.85914610095458L41.65237982749939,164.86015075307418L41.76905316034953,164.86010774599288L41.88572649319967,164.8604953375044L42.235746491750085,164.8607522003999L42.46909315745036,164.86129523763665L42.58576649030049,164.86181340288854L42.819113156000775,164.86218054721394L42.93578648885091,164.86246336967992L43.285806487401324,164.86270950932666L43.86917315165202,164.86279644425733L43.985846484502154,164.8632328636366L44.102519817352295,164.8638669284599L44.33586648305257,164.8641035508466L44.45253981590271,164.86413704239374L44.685886481602985,164.86455094887455L44.91923314730327,164.86482690093598L45.0359064801534,164.86473273524953L45.15257981300354,164.86459792587888L45.269253145853675,164.86519727620635L45.50259981155396,164.86545246800594L45.61927314440409,164.86487616747854L46.43598647435506,164.86514652928284L46.90267980575562,117.8307661662563L47.36937313715617,134.43634723716622L47.48604647000631,145.37511423288322L47.60271980285645,152.47736843636346L48.069413134257,157.25375092194278L48.41943313280741,160.19459776311132L48.76945313135783,161.99913478310268L48.88612646420797,163.08510159203865L49.236146462758384,163.7526637012997L49.35281979560852,164.1545785372685L49.5861664613088,164.40137710370266L49.70283979415893,164.548751035493L49.819513127009074,164.63952413284863L50.05285979270935,164.69876729550631L50.16953312555949,164.7337753948493L50.402879791259764,164.75572201114255L50.519553124109905,164.76876789073165L50.636226456960046,164.77782173577828L50.98624645551046,164.7852370838046L51.33626645406087,164.79147889800814L51.919633118311566,164.79703899580642L52.15297978401184,164.7998131811392L52.386326449712115,164.80233945890387L52.502999782562256,164.80580385199775L53.086366446812946,164.8089222493967L53.43638644536336,164.81142042779885L53.5530597782135,164.81166493974717L53.66973311106364,164.8134516299731L53.786406443913776,164.81297794728113L54.01975310961405,164.81409478174322L54.48644644101461,164.8163384574244L54.71979310671488,164.8173787118117L54.95313977241516,164.81774171864015L55.18648643811544,164.8185669562869L55.76985310236613,164.8196605775234L56.00319976806641,164.8212615141002L56.46989309946696,164.8224341170516L57.05325976371765,164.823110788526L57.28660642941793,164.82507836981569L57.40327976226806,164.8250775741463L57.75329976081848,164.82678559029853L57.98664642651876,164.82785046287185L58.103319759368894,164.82854684852506L58.219993092219035,164.82846972263977L58.45333975791931,77.28333392262697L58.57001309076945,37.2860197914641L58.68668642361959,26.344143038409925L59.15337975502014,64.2854417818234L59.27005308787028,93.39329188753125L59.503399753570555,117.72670797740086L59.85341975212097,135.21610418625417L60.32011308352153,146.51873515265595L60.43678641637166,153.37212009376867L60.5534597492218,157.533736529677L60.67013308207194,160.08405014673104L60.90347974777222,161.6732892749332L61.25349974632263,162.67634089205893L61.37017307917277,163.29068964212368L61.486846412022906,163.66938272006885L61.83686641057332,163.92377558394105L61.95353974342346,164.08474145390636L62.18688640912374,164.19168206534692L62.88692640622457,164.27822485070212L63.12027307192484,164.33881884584375L63.47029307047526,164.3827781716219L63.5869664033254,164.41139619311028L63.82031306902567,164.4338747978588L63.936986401875814,164.4532361916552L64.5203530661265,164.47181675224377L64.63702639897664,164.48383359373153L64.87037306467691,164.49559617693473L65.10371973037721,164.5068035186907L65.22039306322733,164.51280459089264L65.33706639607747,164.51839846880222L65.6870863946279,164.52554170274158L65.80375972747802,164.5346688894686L66.15377972602843,164.54419071826138L66.27045305887857,164.55258267974617L66.50379972457885,164.5546016902947L66.620473057429,164.55988570074098L66.85381972312926,164.5633999711216L67.32051305452983,164.57196159027737L67.43718638737997,164.57969307229462L67.5538597202301,164.58423171984396L67.78720638593039,164.58755220207792L67.90387971878052,164.59179373534684L68.25389971733092,164.5958202397519L68.37057305018108,164.60020593402953L68.48724638303122,164.60268853390636L68.60391971588135,164.607304994861L68.83726638158161,164.60913552558284L68.95393971443175,164.6140229419485L69.07061304728191,164.61472813712527L69.18728638013204,164.61942728995464L70.23734637578329,74.67048961084984L70.35401970863342,35.31381910217897L70.5873663743337,33.165207049642135L70.93738637288412,46.727988451335165L71.75409970283508,80.21085320659343L71.87077303568522,102.260689636999L72.33746636708578,120.84268836318932L72.45413969993591,132.6530966639172L72.57081303278605,140.5072428885023L72.80415969848633,146.28034308652494L73.0375063641866,150.42120590094206L73.50419969558716,153.73328729450645L74.5542596912384,156.61842673146637L74.67093302408854,158.40387855504738L74.78760635693868,159.53372583104704L74.90427968978882,160.27271969589435L75.13762635548909,160.79731118694139L75.25429968833923,161.15543509568576L75.60431968688965,161.46481914617692L75.95433968544006,161.7342861655159L76.77105301539103,162.04488126111428L76.88772634824117,162.26309690369138L77.00439968109131,162.4093115865024L77.12107301394144,162.52258179124084L77.35441967964172,162.61758680473451L77.47109301249186,162.6916384297059L77.587766345342,162.72748752281348L77.82111301104227,162.78152728130098L77.93778634389241,162.82059190074486L78.05445967674255,162.85979531154027L78.28780634244283,162.89700722407474L78.5211530081431,162.94399234606118L78.63782634099324,163.00801637339842L79.10451967239379,163.08028257889595L79.92123300234476,163.17360810209016L80.27125300089519,163.26105264016053L80.38792633374533,163.3090415745573L80.6212729994456,163.3585770969329L80.85461966514588,163.3974796538316L81.20463966369628,163.45662588772643L82.4880463250478,128.18480677021046L82.83806632359823,116.25993698491358L82.95473965644837,112.25695624712252L83.07141298929851,112.21825292790335L83.30475965499878,116.5280075266133L83.53810632069906,122.49161246758936L83.6547796535492,127.42417916932908L83.88812631924947,132.89205841167387L84.47149298350017,139.95327440852364L84.5881663163503,144.66079879516928L85.28820631345113,149.29022055099648L85.52155297915141,152.44199382825212L85.63822631200155,154.460220565749L85.75489964485169,155.8586779628023L85.87157297770182,156.82779695613817L85.98824631055196,157.5464109013282L86.1049196434021,158.03296638960725L86.22159297625224,158.39199689699208L86.33826630910238,158.76937296689846L86.45493964195252,159.03417036322557L86.57161297480265,159.28816732694278L86.80495964050293,159.59757228259747L87.15497963905335,159.93532706276235L87.27165297190348,160.21663638465876L87.38832630475362,160.43313815499116L87.6216729704539,160.65494460477169L88.08836630185445,160.90845965790103L88.32171296755473,161.13756558718833L88.555059633255,161.3174227682048L89.02175296465556,161.545551888778L89.1384262975057,161.69645696950755L89.25509963035583,161.80626599018962L89.48844629605611,161.91850997684034L89.72179296175639,162.02711948909794L89.95513962745666,162.13223772251945L90.18848629315694,162.22115463175592L90.30515962600708,162.29882631978367L90.65517962455749,162.402494109342L90.88852629025777,162.48863222965588L91.00519962310791,162.55029012987586L91.12187295595805,162.59039252529263L91.23854628880818,162.63908548434793L91.35521962165832,162.6900864589325L91.47189295450846,162.71166078986957L91.70523962020874,162.77013074481457L91.82191295305888,162.80343981624767L92.40527961730957,162.86884906348078L92.52195295015972,162.90706426840796L92.75529961585998,162.96051443834082L92.87197294871012,162.99003935211363L92.98864628156026,163.0300615096163L93.33866628011067,60.17914603022662L93.57201294581095,15.45436668257679L93.80535961151124,1.544430843660109L94.0387062772115,2.5287430083434685L94.27205294291178,9.202984920565257L94.50539960861207,18.449338177638055L94.62207294146219,26.23210675734194L94.73874627431233,32.5990675714352L95.08876627286276,41.96170901453107L95.5554596042633,54.59893829651487L95.67213293711345,63.57991565820508L95.90547960281373,72.00786854742351L96.02215293566385,78.4380401404567L96.25549960136414,85.4072092182458L96.72219293276468,94.41507277959435L97.30555959701537,105.07542844431676L98.12227292696635,116.68396449072009L98.23894625981649,124.46833828287794L98.47229292551677,130.10557586073782L98.58896625836691,133.97185107773697L98.70563959121704,136.68773980387405L98.82231292406718,138.84152316796647L98.93898625691732,140.55363278004026L99.05565958976746,142.0253556583584L99.28900625546773,143.68228514634333L99.40567958831787,144.86614002739014L99.87237291971843,146.77061744976757L99.98904625256856,148.1590407661729L100.22239291826884,149.35225976814496L100.45573958396912,150.36614181696825L100.80575958251953,151.4945650767861L101.03910624821981,152.60053442766187L101.15577958106995,153.31390109188544L101.27245291392009,153.79461053158988L101.6224729124705,154.44648264779735L101.73914624532064,154.9655958461622L101.85581957817078,155.3444707132275L101.97249291102092,155.7022283793167L102.08916624387105,155.98440359974984L102.32251290957133,156.32130459953615L102.43918624242147,156.57413308322938L102.55585957527161,156.85635922991077L102.78920624097188,157.2206528278556L102.90587957382202,157.46307667432842L103.02255290667216,157.63616655987312L103.1392262395223,157.80267071036184L103.25589957237244,157.94798201791724L103.37257290522257,158.10848362054733L103.60591957092285,158.38413738786338L103.72259290377299,158.59436158458368L104.0726129023234,158.78178732657943L104.53930623372396,159.11860916090774L104.88932623227437,159.43008851717576L105.00599956512451,48.07315580192568L105.12267289797465,-3.334638877378353L105.70603956222534,-0.9184373501131802L105.93938622792562,8.12213961837179L106.05605956077575,16.041709087353865L106.17273289362589,22.903725112789033L106.63942622502645,34.0820045019685L107.106119556427,46.63732746696476L107.22279288927714,55.688455166803934L107.45613955497741,63.57794311020534L107.57281288782755,69.61597512788245L107.6894862206777,74.2575090633304L107.80615955352783,78.53076781399595L107.92283288637798,82.02561299070925L108.0395062192281,84.78187174273813L108.38952621777852,89.55505838081183L108.50619955062866,93.77983018791844L109.2062395477295,101.03173694172186L109.43958621342976,106.75686002754743L109.5562595462799,110.8250890376337L109.67293287913004,113.7775105017379L109.78960621198019,116.30817275509546L110.02295287768047,118.67849581152022L110.37297287623088,122.03088541440206L110.48964620908102,124.43478821007469L110.83966620763142,127.49465160542078L110.95633954048157,129.60229399242996L111.0730128733317,131.18874294981987L111.30635953903199,132.93028468130706L111.53970620473225,134.65185272513696L111.88972620328268,136.61404226624023L112.00639953613282,138.26956374854564L112.23974620183309,139.51215537293L112.58976620038351,141.06248971258455L112.70643953323365,142.25354204941786L112.82311286608378,143.11549527931194L113.05645953178406,144.06512153597157L113.1731328646342,144.70507562511222L113.28980619748434,145.39343614087866L113.5231528631846,146.19315595083847L113.63982619603475,146.7610203255809L113.75649952888489,147.33668181755488L114.33986619313558,148.30641522585853L114.80655952453613,149.39666197541763L114.92323285738627,150.16513170848668L115.15657952308655,150.88738304088236L115.38992618878683,151.46371710419754L115.6232728544871,151.98666028136915L115.73994618733724,152.22879107257137L115.85661952018738,152.63420058865282L115.97329285303752,152.90070138089408L116.08996618588766,153.1332259568774L116.20663951873779,153.44778950473105L116.43998618443807,153.73055791492672L116.67333285013835,60.29720609205239L116.90667951583862,14.463595046707383L117.25669951438904,-0.2081286337016195L117.60671951293945,-0.908223049847237L117.72339284578959,2.5629874556370567L118.19008617719014,14.417286598125997L118.42343284289042,25.465094245770956L118.54010617574056,34.532332169892726L118.77345284144084,43.94263256342384L119.12347283999125,54.64137513608803L119.35681950569153,64.7242371820085L119.47349283854167,72.49775980549005L119.5901661713918,78.93615602080668L119.94018616994222,87.39653577280801L120.29020616849263,96.71545065017543L120.40687950134277,103.1791274073053L120.64022616704305,109.51346905342389L120.87357283274332,115.12313071107857L121.1069194984436,120.3491259676479L121.69028616269429,126.50594126693164L121.92363282839457,131.2579082124333L122.04030616124471,134.69223408744477L122.15697949409486,136.80627741782212L122.27365282694498,138.62769997006887L122.6236728254954,140.64650079315157L123.32371282259624,143.5091774794475L123.5570594882965,145.56028029048036L123.67373282114664,147.0042221626629L123.79040615399678,148.01042112720668L123.90707948684692,148.9910701168975L124.02375281969707,149.46070655630507L124.49044615109761,150.4433781137144L124.7237928167979,151.3228111384971L124.84046614964804,151.91420302901707L125.19048614819845,152.52130645845554L125.30715948104859,153.0052626283428L125.42383281389873,153.38824881467093L125.54050614674885,153.69522857096638L125.657179479599,153.88264610623344L125.89052614529928,154.243312014579L126.00719947814942,154.52064800669086L126.12387281099956,154.799164985988L126.24054614384968,155.00812148081715L126.47389280954997,155.24099866257694L126.82391280810039,155.5651011621771L127.05725947380066,155.8569415390377L127.1739328066508,156.03356871770973L127.40727947235108,156.33880186072275L127.52395280520122,156.55854338387059L127.87397280375163,156.82829428874834L127.99064613660177,157.03743301628748L128.22399280230206,157.17706932706642L128.34066613515216,44.366522222108046L129.15737946510313,64.522923295858L129.2740527979533,80.17861353575684L129.39072613080344,93.03966190713446L129.50739946365357,102.99991682116273L129.6240727965037,110.82501999994719L129.74074612935382,117.3227991111105L129.85741946220398,122.5758480390379L130.09076612790426,127.9598704962471L130.20743946075441,132.25418082238428L130.3241127936045,135.87811875441798L130.67413279215495,139.90745672645423L130.7908061250051,142.95101299285648L130.90747945785523,145.31083794212182L131.02415279070536,147.1332325022943L131.25749945640564,148.83118967858894L131.95753945350648,151.15133922767257L132.0742127863566,152.72164192345065L132.19088611920677,153.78408732715639L132.42423278490702,154.59841394569702L132.89092611630758,155.6348368183831L133.240946114858,156.50475065288165L133.59096611340843,157.27870042899193L134.05765944480896,157.88841644448638L134.40767944335937,158.44114155313116L134.5243527762095,158.79444732576835L134.64102610905965,159.10239661937686L134.87437277475993,159.3590714062293L134.99104610761006,159.53421563947032L135.1077194404602,159.6812257972279L135.45773943901062,159.90442268502412L135.57441277186078,160.01367711046132L135.80775943756103,160.22517654655016L136.0411061032613,160.2880638817655L136.15777943611147,160.38217157062985L136.39112610181172,160.52039554301737L136.624472767512,160.63515943831038L136.74114610036216,160.7496559037376L136.97449276606244,160.8147031520453L137.2078394317627,160.9315555559365L137.32451276461285,161.02915565310556L137.44118609746297,161.08493154841057L137.55785943031313,161.10993403594878L137.9078794288635,161.2070295177914L138.02455276171366,161.29483369165317L138.14122609456382,161.33715625306382L138.4912460931142,161.43686710651394L138.60791942596435,161.50016219298652L139.54130608876548,161.62997837795464L139.89132608731586,161.73353634210244L140.00799942016602,65.17088410900512L140.2413460858663,20.826690969055676L140.47469275156658,4.607344412842622L140.5913660844167,-1.4726524316110101L140.9413860829671,4.706103697364227L141.05805941581727,11.63259538690798L141.29140608151755,21.14569304155006L141.40807941436768,29.388918759175766L141.5247527472178,36.54076825083786L141.64142608006796,43.06259952491129L141.99144607861837,52.55068347331397L142.92483274141946,68.71227498555068L143.04150607426962,79.14944838683373L143.15817940711975,86.44850278933555L143.39152607282003,92.90594899456876L143.6248727385203,98.49603767684509L143.74154607137044,102.44539793844177L143.8582194042206,105.44091254394286L144.09156606992084,108.95338626509847L144.32491273562113,112.27459914996832L144.44158606847128,114.5763883011329L144.5582594013214,116.7986727764764L144.90827939987182,119.80918079543156L145.02495273272197,122.00374580133436L145.1416260655721,123.77675339741819L145.7249927298228,127.08176101187533L145.95833939552307,129.77245074168678L146.0750127283732,131.73205623927987L146.30835939407348,133.42820741401295L146.42503272692363,134.78080354275625L146.6583793926239,136.25489570253367L147.35841938972473,138.4960242591734L147.47509272257486,140.21156671121793L147.70843938827514,141.61284115872309L147.94178605397542,142.7913317762972L148.40847938537598,144.2089639366849L148.64182605107627,145.36993465689773L148.87517271677652,146.35724804396307L149.1085193824768,147.07049017444484L149.34186604817708,147.92369792366048L149.57521271387736,148.5471731970121L149.6918860467275,149.16497859764522L149.80855937957764,149.53995716044054L149.92523271242777,149.87823834063244L150.04190604527793,150.24935424540953L150.50859937667846,150.77840489064147L150.74194604237874,151.25955054819497L150.85861937522887,151.59965470790715L151.5586593723297,152.30813553503438L151.79200603803,74.46626412147211L152.02535270373028,34.18518249846693L152.1420260365804,12.081962501306833L152.25869936943053,1.433536330193732L152.95873936653138,7.484578207141055L153.30875936508178,15.939901305376964L153.54210603078207,23.075400270113875L153.89212602933247,30.98480832735663L154.24214602788288,38.953428287811136L154.35881936073304,44.570864683103764L154.59216602643332,49.885563983938425L154.70883935928344,53.64480447777004L154.82551269213357,56.890877902462705L154.94218602498373,59.7110568230523L155.175532690684,63.14127595636643L155.29220602353413,66.14099766860076L155.52555268923442,69.40741467937673L155.64222602208454,71.80039796509361L155.7588993549347,73.91453177382716L156.1089193534851,77.31773750630798L156.22559268633523,79.81183600959369L156.45893935203551,82.51818444260756L157.39232601483664,89.5045004340998L157.50899934768677,93.4629615112308L157.6256726805369,96.84830375515924L157.74234601338705,99.3080480988919L158.09236601193746,102.41586825678975L158.20903934478758,104.50843257809754L158.32571267763774,106.11673009323313L158.67573267618815,108.56797008932304L158.7924060090383,110.28456167440494L158.90907934188843,112.06996661047421L159.25909934043884,114.27475144722875L160.6591793346405,119.9311125961388L161.0091993331909,124.18898226535424L161.2425459988912,127.45450392642869L161.35921933174134,129.60253069477253L161.5925659974416,131.24070401339802L161.70923933029175,132.6453593966676L162.05925932884216,134.039960039377L162.40927932739257,135.58183075131785L162.52595266024272,136.785811720746L162.64262599309285,137.7324821740549L162.759299325943,138.29319890832514L162.87597265879313,139.0251812328746L162.99264599164326,139.70396654229145L163.1093193244934,140.24525362179185L163.22599265734354,140.72671275808648L163.45933932304382,62.339369145449524L163.6926859887441,16.357783861898696L163.80935932159423,-2.386168107355786L164.2760526529948,-2.0305611901997054L164.50939931869507,5.04725716919495L164.6260726515452,9.844650973785548L164.74274598439536,16.080745243890618L164.85941931724548,20.737905620064367L164.9760926500956,26.43088143985875L165.09276598294576,31.10158245827506L165.55945931434633,39.95495662532355L166.14282597859702,51.332136238701636L166.25949931144714,59.124440790319795L166.49284597714743,66.27246164226504L166.60951930999755,71.21261432864358L167.07621264139812,77.90414689801297L167.19288597424824,83.03831896424707L167.3095593070984,86.86462540327778L167.54290597279868,90.39006913605607L167.8929259713491,94.78947462215389L168.2429459698995,99.26565259204875L168.47629263559978,103.3773277950081L168.70963930130006,107.11322199983306L168.82631263415018,109.53283095417827L169.05965929985047,112.33207094101913L169.1763326327006,114.13608493807928L169.52635263125103,117.24999607968849L169.64302596410116,119.33981655944925L169.75969929695128,121.15503725232631L169.99304596265156,122.89819474736069L170.10971929550172,124.78799692625947L170.22639262835185,126.08762945801035L170.45973929405213,127.36528506583795L170.57641262690225,128.467377442313L170.6930859597524,129.3678186438016L170.80975929260254,130.50520262891484L170.9264326254527,131.73346393317678L171.04310595830282,132.70151377894038L171.6264726225535,134.8538649647267L171.74314595540363,136.22841270293202L171.97649262110392,137.55969652798765L172.44318595250448,139.31526102902725L172.5598592853546,140.53877665615485L172.7932059510549,141.55477279010145L173.25989928245545,143.04494891057143L173.49324594815573,144.0113098203865L173.72659261385598,145.06624039108706L173.95993927955627,145.87840003019892L174.07661261240642,146.62345119317774L174.19328594525655,147.1637813255671L174.3099592781067,147.62620217274207L174.54330594380696,148.2223222662158L174.8933259423574,148.9635162966179L175.00999927520752,49.504728761036944L175.2433459409078,42.375505972562905L175.36001927375793,45.5336392640138L175.47669260660808,52.663172845760016L175.71003927230834,65.86419338124152L176.1767326037089,86.77465999947523L176.41007926940918,103.51240154228445L176.5267526022593,115.75808431407742L176.7600992679596,125.45011104871011L176.87677260080974,132.30887291859406L177.22679259936015,139.06212235031197L177.34346593221028,143.5922424220536L177.92683259646097,148.2395851280776L178.04350592931112,151.07708951035806L178.16017926216125,153.09858698443543L178.2768525950114,154.45483890621372L178.51019926071166,155.52451258881413L178.74354592641194,156.47288331505422L178.8602192592621,157.14641488931542L178.97689259211222,157.6337285159401L179.09356592496235,158.00710229018878L179.2102392578125,158.36031577985204L179.32691259066263,158.66656980251605L179.67693258921307,159.10248682991505L180.02695258776347,159.48002582057975L180.26029925346376,159.75132087527783L180.493645919164,160.0308602793235L180.61031925201416,160.25249853877796L180.7269925848643,160.47179365941724L180.84366591771445,160.51541473462856L180.96033925056457,160.69087702342418L181.42703258196514,160.87762875496958L181.89372591336567,161.0192951443627L182.12707257906595,161.1897591836857L182.2437459119161,161.33175377923396L182.59376591046652,161.52348350835365L182.71043924331664,161.61548001383375L182.8271125761668,161.66877258849166L183.1771325747172,161.7832127874408L183.5271525732676,161.90344026722988L183.64382590611777,161.98309692709844L183.7604992389679,162.04304031060983L183.99384590466818,162.11746891863106L184.1105192375183,162.14543625636995L184.22719257036846,162.21708447268452L184.57721256891887,162.2738929111362L184.81055923461915,162.3343557810922L184.92723256746928,162.39856710311602L185.04390590031943,162.43513508910155L185.16057923316956,162.45329306833835L185.27725256601968,162.48893812801938L185.39392589886984,162.53621969780323L185.62727256457012,162.56725863855604L185.74394589742025,162.59746286313822L186.09396589597065,162.64715562453662L186.67733256022134,59.58071235964452L188.077412554423,82.35983274709855L188.19408588727316,97.55446637461915L188.3107592201233,108.17052110919192L188.42743255297344,116.07374391477335L188.89412588437398,125.34842337044086L189.24414588292439,132.60195054806948L189.36081921577454,137.49596672231092L189.59416588147482,141.54924739305153L189.71083921432495,144.32849549555266L189.82751254717508,146.1836508842616L189.94418588002523,147.8603440116495L190.1775325457255,149.2860376536596L190.4108792114258,150.63869113274419L190.52755254427592,151.55312231953621L190.64422587712605,152.41146650533196L190.87757254282633,153.25376171241192L190.99424587567648,153.88192275067044L191.1109192085266,154.42576399794257L191.3442658742269,154.94715376004729L191.57761253992717,155.47539253298174L192.277652537028,156.31321145015244L192.51099920272827,156.8917028582943L193.09436586697896,157.5162857846953L193.2110391998291,158.02157262288597L193.67773253122965,158.48462771820394L194.26109919548034,158.96992776358695L194.3777725283305,159.26922998605536L194.84446585973103,159.5203974603616L195.3111591911316,159.81092605340487L195.661179189682,160.1255102844412L196.0111991882324,160.36821442295823L196.12787252108257,160.452214491519L196.2445458539327,160.6495733939123L196.5945658524831,160.76469238987806L196.71123918533326,160.83736921138254L197.06125918388366,160.9476369916166L197.29460584958395,160.98198583760146L197.41127918243407,161.09069822898488L197.52795251528423,161.1573089004607L198.3446658452352,69.67765121146773L198.46133917808532,30.800239797042707L198.57801251093545,19.181258951934154L198.6946858437856,18.23506254916299L198.9280325094859,26.84767781624251L199.04470584233601,35.352819941881194L199.16137917518617,43.51085435394842L199.2780525080363,50.03657144637191L199.39472584088642,56.790955610834715L199.51139917373658,62.6877810851375L199.6280725065867,68.8497156052512L199.74474583943686,73.5068481184622L199.861419172287,78.31660087644026L200.2114391708374,85.50473027657856L200.44478583653768,92.044002724958L201.02815250078837,100.69214043641155L201.14482583363852,106.03443473577754L201.26149916648865,109.89569446889233L201.49484583218893,113.98963406158984L202.3115591621399,120.28661881694495L202.54490582784018,124.56275520740613L203.12827249209087,129.2084672317717L203.244945824941,132.5477116867525L203.71163915634156,135.44809888002513L203.94498582204184,137.79429072643086L204.06165915489197,139.2242640692378L204.29500582059225,140.65771972658416L204.41167915344238,141.8234882559127L204.64502581914266,142.86133966927542L204.7616991519928,143.55241795079718L205.46173914909363,145.16613928932622L205.57841248194376,146.05548780179902L205.6950858147939,146.90937818864137L206.2784524790446,148.0928617895566L206.39512581189473,148.7839584484547L207.44518580754598,150.04619604978356L207.5618591403961,150.86480723103267L207.91187913894655,151.66361330430442L208.02855247179667,152.0206280012213L208.1452258046468,152.43966591221965L208.37857247034708,152.84950979366587L208.61191913604736,153.1948260398245L208.84526580174764,153.54108405763705L209.19528580029805,154.07473826691947L209.3119591331482,154.3465514151548L209.54530579884846,154.5086018356633L209.66197913169862,154.73636343754373L209.8953257973989,154.8574455962833L210.12867246309915,87.96260268351341L210.2453457959493,53.0975382334382L210.4786924616496,37.93906940680921L210.5953657944997,34.745630074824106L211.06205912590028,48.40762114933759L211.1787324587504,59.3565686304174L211.41207912445068,70.62436728802157L211.5287524573008,79.03317925206649L211.64542579015097,85.79317800776396L211.7620991230011,91.55140645854763L211.99544578870137,97.03859972278414L212.1121191215515,101.51700384203463L212.22879245440166,105.60404362714108L212.34546578725178,109.07450132514352L212.81215911865235,114.47486664769069L213.04550578435263,119.39319283286538L213.16217911720275,123.03172447607058L213.2788524500529,125.8605098281572L213.51219911575316,128.23305341980537L213.74554578145344,130.93549282394434L213.97889244715373,133.64141727257956L214.212239112854,135.74176386783918L214.32891244570413,137.43018454559157L214.4455857785543,138.84796560684515L214.67893244425457,140.5020816393609L214.7956057771047,141.5712282674501L214.91227910995482,142.54317106949318L215.02895244280498,143.34713178498615L215.1456257756551,144.02369269100993L215.26229910850526,144.77966983899128L215.4956457742055,145.57389367124014L215.61231910705567,146.2536643348239L215.96233910560608,147.38145513541355L216.0790124384562,147.9828376455626L216.31235910415649,148.87376143441637L216.42903243700664,149.6551716083349L216.77905243555705,150.22409689047836L216.89572576840717,150.70950424043923L217.01239910125733,151.34430630553007L217.12907243410746,151.94547645673975L217.2457457669576,152.21830428328158L217.47909243265786,152.66035176142276L217.94578576405843,153.30408260507105L218.1791324297587,153.71866067365792L218.29580576260884,154.23867586333012L218.412479095459,154.41836172597078L218.7624990940094,154.90504839446982L218.87917242685953,155.1420228098692L219.1125190925598,155.4804639244181L219.57921242396037,155.8945664448227L219.6958857568105,156.26325243284901L219.81255908966065,156.4373533932754L219.92923242251078,156.586908303151L220.16257908821106,156.88365993428465L220.62927241961162,157.29847025071518L220.74594575246175,157.45879457100898L220.97929241816203,157.5249703891719L221.09596575101216,157.70612669136514L221.2126390838623,157.9436259294753L221.32931241671244,158.1150216052689L221.56265908241272,158.2165024724502L221.91267908096313,76.60330432724312L222.02935241381329,40.27299447132867L222.1460257466634,23.702202833910803L222.26269907951354,21.557706178983494L222.3793724123637,21.979466780208384L222.7293924109141,36.40706352569114L222.84606574376423,48.464775268769216L223.3127590751648,65.49111521041162L223.42943240801495,76.8071585431309L223.6627790737152,86.21954143042532L223.77945240656535,93.71947636867685L223.89612573941548,99.64542933892338L224.36281907081604,107.53441536771507L224.71283906936645,114.27450090002519L224.94618573506673,119.85388887881273L225.29620573361714,124.86095226041999L225.4128790664673,128.3895236249249L225.52955239931742,130.932506123073L225.64622573216755,132.6470054626155L225.7628990650177,134.2855792629565L225.996245730718,135.94313895563184L226.1129190635681,137.15460362222566L226.22959239641824,137.977783210046L226.57961239496868,139.4048012746022L226.6962857278188,140.93995084886285L226.92963239351909,142.07249808420477L227.0463057263692,143.16214323308478L227.16297905921937,144.1518303008353L227.51299905776978,145.31555503959456L227.74634572347006,146.34997879311905L227.86301905632018,146.83113661874077L227.97969238917034,147.61889195794384L228.09636572202047,148.32173932559434L228.91307905197144,149.51259676970153L229.02975238482156,150.2799867468246L229.379772383372,151.0664226664642L229.9631390476227,152.06340114219745L230.42983237902322,152.8788636658069L230.6631790447235,153.5210945580751L230.8965257104238,153.98174308093277L231.12987237612407,154.40904699805566L231.2465457089742,154.70513585646356L231.36321904182435,154.98634175561327L231.47989237467448,155.1658101528843L231.94658570607504,155.4154071762634L232.06325903892517,155.63641231464555L232.17993237177532,155.85236830432538L232.41327903747558,156.14933760992483L232.52995237032573,156.32305024969148L232.64662570317586,156.51079191306872L233.11331903457642,156.85226831277342L233.3466657002767,59.514302660220835L233.58001236597696,51.32110629773854L233.81335903167724,53.88377984127186L233.9300323645274,58.65339787752207L234.16337903022767,69.32222774196919L234.6300723616282,86.42120827478571L234.8634190273285,101.25238026960132L234.98009236017862,111.81365234550667L235.33011235872905,122.32599901485014L235.68013235727946,131.18298421571228L236.14682568868002,138.54652830217884L236.38017235438028,143.68205680457112L236.49684568723043,146.98253034946197L236.84686568578084,149.6361092133041L237.3135590171814,152.01453672395766L237.43023235003153,153.74688248481957L237.5469056828817,154.63197019732547L237.6635790157318,155.53897982961212L238.01359901428222,156.20646712784125L238.13027234713238,156.71521525927284L238.2469456799825,157.25205284066212L238.48029234568278,157.71234441576289L238.5969656785329,158.06878508638457L238.71363901138307,158.37176760126454L238.94698567708335,158.60356099209181L239.06365900993347,158.80838507342105L239.41367900848388,159.16361872685795L239.53035234133404,159.4099072965558L239.7636990070343,159.575306755149L239.99704567273457,159.81334886346832L240.11371900558473,159.9608199691018L240.23039233843485,160.08183989633125L241.04710566838583,160.37728693577242L241.16377900123595,160.69769894100736L241.2804523340861,160.8819485958117L241.39712566693623,160.87716953873732L242.09716566403708,161.1180584575956L242.2138389968872,161.31039455100353L242.33051232973733,161.4550099356959L242.4471856625875,161.5622236334467L242.5638589954376,161.58739175929162L242.7972056611379,161.6400363308204L243.1472256596883,161.7975250439243L243.49724565823874,161.85546585441256L243.96393898963927,161.97672300617936L244.08061232248943,162.0744410742887L244.19728565533956,162.16564070926475L244.3139589881897,162.22091820733488L244.43063232103984,162.27470197532213L244.66397898674012,162.28767948362247L244.78065231959025,162.29661786683968L245.2473456509908,86.74299352354844L245.59736564954122,75.20507912693996L245.71403898239134,77.11610524451507L246.06405898094178,91.33382337136145L246.1807323137919,105.1089996752462L246.29740564664206,116.51233772485352L246.4140789794922,124.55959780367786L246.53075231234232,130.42589728502273L246.7640989780426,137.1327773784344L246.88077231089275,141.81188772337606L246.99744564374288,145.18243296097089L247.114118976593,147.74844073481702L247.23079230944316,149.79767465886135L247.69748564084372,152.37114611756377L247.81415897369385,154.18822012200866L247.93083230654398,155.39198918852804L248.2808523050944,156.57172506919804L248.51419897079467,157.46872031881142L248.63087230364482,158.17853364912781L248.74754563649495,158.64181424377693L248.98089230219523,158.92313758413243L249.09756563504536,159.1808578985896L249.2142389678955,159.37170615455486L249.4475856335958,159.64676670586476L249.56425896644592,159.87786458436457L249.91427896499633,160.16049949192566L250.1476256306966,160.40227867383518L250.3809722963969,160.57240856375554L250.49764562924702,160.7330916710196L250.7309922949473,160.8818488117937L251.0810122934977,160.96600272847692L251.314358959198,161.10185560284813L251.43103229204814,161.19035557986774L251.54770562489827,161.31232895790205L251.78105229059855,161.36296549032562L252.01439895629883,161.45739290441438L252.13107228914896,161.5245766108994L252.24774562199912,161.62280800618007L252.71443895339965,161.70960853802418L252.8311122862498,161.80315598228148L253.0644589519501,161.90913542944338L253.29780561765034,161.94934549756246L253.88117228190103,162.08940486853788L254.3478656133016,162.15615289943844L254.46453894615172,162.24587899551196L254.58121227900187,162.30298945977265L254.697885611852,162.34879261988772L256.09796560605366,162.49786445678444L256.3313122717539,162.5823487906771L256.5646589374542,162.62577498266734" fill="none"></path></g></g></g></g><g opacity="0.2"><g><g><g><path style="fill: none;" stroke="rgb(255, 112, 67)" stroke-width="2px" d="M23.91803323427836,164.85265727172708L24.0347065671285,164.85786072292368L24.50139989852905,164.84316972149315L24.618073231379192,164.82622729275312L24.851419897079467,164.85867092522744L24.968093229929607,164.8672319997217L25.084766562779745,164.87031177619028L25.318113228480023,164.87369749872167L25.43478656133016,164.8747234678545L25.551459894180297,164.87507810291376L25.668133227030435,164.8760418080987L26.13482655843099,164.8771520075518L27.184886554082233,164.87762856884441L27.301559886932374,164.87780407288815L27.53490655263265,164.8780136470729L27.884926551183064,164.87795593783372L28.001599884033205,164.87817851853103L28.23494654973348,164.87821205842232L28.468293215433757,164.87830894615416L28.584966548283894,164.87778407475773L28.818313213984172,164.87842422817116L29.051659879684447,164.878109130003L29.168333212534588,164.8776398498462L29.518353211085003,164.87845075255137L29.63502654393514,164.87810986819372L29.751699876785278,164.87842074045994L29.86837320963542,164.87819794662306L29.985046542485556,164.8782734796091L30.33506654103597,164.87841483973284L30.45173987388611,164.8783497717799L30.685086539586386,164.8784636477955L30.91843320528666,164.8785210747147L31.0351065381368,164.87833149746078L31.15177987098694,164.8786231237833L31.268453203837076,164.87874314835577L31.61847320238749,164.87848790341891L31.73514653523763,164.8784548064021L31.85181986808777,164.8784639568079L31.968493200937907,164.87829488254127L32.20183986663819,164.87850365685276L32.551859865188604,164.87847130862363L33.13522652943929,164.87873674667065L33.25189986228943,164.87876167670288L33.36857319513957,164.8784793315491L33.4852465279897,164.87852573049477L33.60191986083984,164.87871240117272L33.71859319368998,164.87847963676256L34.30195985794067,164.8788280342902L35.23534652074178,14.349220323905882L35.585366519292194,155.47492678337028L35.702039852142335,162.38861564096644L36.5187531820933,164.74596524103035L36.868773180643714,164.80462213471918L37.102119846343996,164.81644302024137L37.21879317919413,164.8211852981828L37.33546651204427,164.83350695693335L37.80215984344483,164.83876673296157L37.91883317629496,164.84345642101246L38.0355065091451,164.84558010373823L38.385526507695516,164.84980344720006L38.50219984054566,164.8495421068913L38.85221983909607,164.85449106863686L39.31891317049662,164.85399416151242L39.552259836196896,164.85520687850132L39.78560650189718,164.85549522555357L39.90227983474731,164.85763006031763L40.01895316759745,164.85716039986863L40.13562650044759,164.85632095305584L40.60231983184814,164.85876682284L40.835666497548424,164.8594018779988L41.18568649609884,164.86036811766525L41.30235982894897,164.85924428267785L41.41903316179911,164.86003680039528L41.65237982749939,164.8616577312536L41.76905316034953,164.86004323537094L41.88572649319967,164.86107672477172L42.235746491750085,164.86113749474313L42.46909315745036,164.86210979349175L42.58576649030049,164.86259065076644L42.819113156000775,164.862731263702L42.93578648885091,164.86288760337894L43.285806487401324,164.8630787187968L43.86917315165202,164.86292684665327L43.985846484502154,164.8638874927055L44.102519817352295,164.86481802569492L44.33586648305257,164.8644584844266L44.45253981590271,164.86418727971446L44.685886481602985,164.8651718085958L44.91923314730327,164.86524082902815L45.0359064801534,164.8645914867198L45.15257981300354,164.86439571182294L45.269253145853675,164.86609630169755L45.50259981155396,164.86583525570535L45.61927314440409,164.8640117166874L46.43598647435506,164.86555207198927L46.90267980575562,47.279195621716525L47.36937313715617,159.3447188435311L47.48604647000631,161.78326472645875L47.60271980285645,163.13074974158377L48.069413134257,164.41832465031177L48.41943313280741,164.60586802486415L48.76945313135783,164.70594031308968L48.88612646420797,164.71405180544264L49.236146462758384,164.75400686519126L49.35281979560852,164.7574507912217L49.5861664613088,164.77157495335388L49.70283979415893,164.76981193317854L49.819513127009074,164.7756837788821L50.05285979270935,164.78763203949282L50.16953312555949,164.78628754386378L50.402879791259764,164.7886419355824L50.519553124109905,164.78833671011532L50.636226456960046,164.7914025033482L50.98624645551046,164.79636010584406L51.33626645406087,164.80084161931347L51.919633118311566,164.80537914250385L52.15297978401184,164.80397445913835L52.386326449712115,164.80612887555094L52.502999782562256,164.81100044163856L53.086366446812946,164.81359984549508L53.43638644536336,164.81516769540207L53.5530597782135,164.81203170766966L53.66973311106364,164.81613166531199L53.786406443913776,164.81226742324316L54.01975310961405,164.81577003343637L54.48644644101461,164.81970397094616L54.71979310671488,164.81893909339263L54.95313977241516,164.81828622888287L55.18648643811544,164.81980481275704L55.76985310236613,164.82130100937812L56.00319976806641,164.8236629189654L56.46989309946696,164.82419302147878L57.05325976371765,164.82412579573761L57.28660642941793,164.82802974175016L57.40327976226806,164.8250763806422L57.75329976081848,164.82934761452688L57.98664642651876,164.82944777173185L58.103319759368894,164.82959142700489L58.219993092219035,164.8283540338118L58.45333975791931,-54.03436977739216L58.57001309076945,-22.70995140528015L58.68668642361959,9.931327908828706L59.15337975502014,121.19738989694358L59.27005308787028,137.05506704609303L59.503399753570555,154.22683211220527L59.85341975212097,161.4501984995341L60.32011308352153,163.47268160225866L60.43678641637166,163.65219750543773L60.5534597492218,163.77616118353947L60.67013308207194,163.90952057231212L60.90347974777222,164.05714796723646L61.25349974632263,164.1809183177475L61.37017307917277,164.21221276722076L61.486846412022906,164.23742233698664L61.83686641057332,164.30536487974936L61.95353974342346,164.32619025885435L62.18688640912374,164.35209298250777L62.88692640622457,164.4080390287349L63.12027307192484,164.4297098385562L63.47029307047526,164.4487171602892L63.5869664033254,164.45432322534282L63.82031306902567,164.46759270498157L63.936986401875814,164.48227828234985L64.5203530661265,164.49968759312662L64.63702639897664,164.50185885596318L64.87037306467691,164.5132400517395L65.10371973037721,164.52361453132468L65.22039306322733,164.52180619919554L65.33706639607747,164.52678928566658L65.6870863946279,164.53625655365065L65.80375972747802,164.54835966955912L66.15377972602843,164.55847346145055L66.27045305887857,164.56517062197335L66.50379972457885,164.5576302061175L66.620473057429,164.5678117164104L66.85381972312926,164.56867137669258L67.32051305452983,164.584804019011L67.43718638737997,164.5912902953205L67.5538597202301,164.59103969116796L67.78720638593039,164.59253292542888L67.90387971878052,164.59815603525024L68.25389971733092,164.60185999635948L68.37057305018108,164.606784475446L68.48724638303122,164.6064124337216L68.60391971588135,164.61422968629296L68.83726638158161,164.6118813216656L68.95393971443175,164.62135406649693L69.07061304728191,164.61578592989042L69.18728638013204,164.62647601919875L70.23734637578329,-60.25291690780739L70.35401970863342,-23.721186660827357L70.5873663743337,29.94228897083687L70.93738637288412,67.07216055387474L71.75409970283508,130.4351503394808L71.87077303568522,135.33544428260737L72.33746636708578,148.7156864524748L72.45413969993591,150.36870911500904L72.57081303278605,152.28846222537993L72.80415969848633,154.93999338355889L73.0375063641866,156.63250012256773L73.50419969558716,158.70140938485304L74.5542596912384,160.94613588690623L74.67093302408854,161.0820562904189L74.78760635693868,161.22849674504653L74.90427968978882,161.38121049316533L75.13762635548909,161.58419842351194L75.25429968833923,161.6926209588023L75.60431968688965,161.9288952219137L75.95433968544006,162.13848669452435L76.77105301539103,162.5107739045119L76.88772634824117,162.590420367557L77.00439968109131,162.628633610719L77.12107301394144,162.6924870983485L77.35441967964172,162.76009432497497L77.47109301249186,162.80271586716302L77.587766345342,162.78126116247486L77.82111301104227,162.8625869190322L77.93778634389241,162.8791888299107L78.05445967674255,162.9186004277334L78.28780634244283,162.95282509287642L78.5211530081431,163.01447002904087L78.63782634099324,163.1040524144043L79.10451967239379,163.1886818871422L79.92123300234476,163.31359638688144L80.27125300089519,163.39221944726614L80.38792633374533,163.38102497615247L80.6212729994456,163.43288038049624L80.85461966514588,163.45583348917967L81.20463966369628,163.5453452385687L82.4880463250478,75.2770780939365L82.83806632359823,98.37263230696827L82.95473965644837,106.25248514043594L83.07141298929851,112.1601979490746L83.30475965499878,122.99263942467825L83.53810632069906,131.43701987905342L83.6547796535492,134.82302922193867L83.88812631924947,141.093877275191L84.47149298350017,150.5450984037983L84.5881663163503,151.7220853751378L85.28820631345113,156.23435318473727L85.52155297915141,157.1696537441356L85.63822631200155,157.48756067199434L85.75489964485169,157.9563640583822L85.87157297770182,158.28147544614197L85.98824631055196,158.6243318191132L86.1049196434021,158.76279962202588L86.22159297625224,158.93054265806933L86.33826630910238,159.33543707175798L86.45493964195252,159.43136645771622L86.57161297480265,159.66916277251863L86.80495964050293,160.0616797160795L87.15497963905335,160.44195923300964L87.27165297190348,160.6386003675034L87.38832630475362,160.75789081048973L87.6216729704539,160.98765427944252L88.08836630185445,161.288732237595L88.32171296755473,161.48122448111928L88.555059633255,161.58720853972952L89.02175296465556,161.8877455696378L89.1384262975057,161.9228145906019L89.25509963035583,161.97097952121268L89.48844629605611,162.0868759568164L89.72179296175639,162.19003375748437L89.95513962745666,162.2899150726517L90.18848629315694,162.35452999561065L90.30515962600708,162.41533385182532L90.65517962455749,162.55799579367945L90.88852629025777,162.61783941012672L91.00519962310791,162.6427769802058L91.12187295595805,162.6505461184178L91.23854628880818,162.71212492293088L91.35521962165832,162.76658792080937L91.47189295450846,162.74402228627514L91.70523962020874,162.85783567723206L91.82191295305888,162.8534034233973L92.40527961730957,162.96696293433044L92.52195295015972,162.9643870757987L92.75529961585998,163.04068969324013L92.87197294871012,163.03432672277282L92.98864628156026,163.09009474587037L93.33866628011067,-94.09722718885791L93.80535961151124,-19.32047291471497L94.0387062772115,4.005211255368465L94.27205294291178,19.214347788897953L94.50539960861207,32.31886806324732L94.62207294146219,37.906259626897736L94.73874627431233,42.14950879257509L95.08876627286276,56.00567117917484L95.5554596042633,73.55478221949065L95.67213293711345,77.0513817007404L95.90547960281373,84.64979788125115L96.02215293566385,88.08329753000652L96.25549960136414,95.86096283492942L96.72219293276468,107.92686812161719L97.30555959701537,121.06596194140033L98.12227292696635,134.09676856032513L98.23894625981649,136.14489897111463L98.47229292551677,138.56143222752766L98.58896625836691,139.77126390323568L98.70563959121704,140.7615728930797L98.82231292406718,142.07219821410507L98.93898625691732,143.12179719815094L99.05565958976746,144.23293997583562L99.28900625546773,146.1676793783207L99.40567958831787,146.64192234896032L99.87237291971843,149.62733358333375L99.98904625256856,150.24167574078086L100.22239291826884,151.14208827110303L100.45573958396912,151.88696489020322L100.80575958251953,153.18719996651288L101.03910624821981,154.2594884539755L101.15577958106995,154.38395108822078L101.27245291392009,154.51567469114656L101.6224729124705,155.42429082210853L101.73914624532064,155.74426564370947L101.85581957817078,155.9127830138255L101.97249291102092,156.23886487845044L102.08916624387105,156.40766643039953L102.32251290957133,156.82665609921565L102.43918624242147,156.95337580876924L102.55585957527161,157.27969844993285L102.78920624097188,157.7670932247728L102.90587957382202,157.82671244403772L103.02255290667216,157.89580138819014L103.1392262395223,158.0524269360949L103.25589957237244,158.16594897925032L103.37257290522257,158.3492360244925L103.60591957092285,158.79761803883744L103.72259290377299,158.90969787966415L104.0726129023234,159.06292593957306L104.53930623372396,159.6238419124002L104.88932623227437,159.8973075515778L105.00599956512451,-118.96224327094944L105.47269289652506,-13.31948294739891L105.5893662293752,0.6932922931044061L105.70603956222534,10.271966107462987L105.93938622792562,21.683005071099274L106.05605956077575,27.921063290826936L106.17273289362589,33.19674915094171L106.63942622502645,50.849423585737696L107.106119556427,65.47031191445916L107.22279288927714,69.26514671656273L107.45613955497741,75.41217502530748L107.57281288782755,78.67302315439807L107.6894862206777,81.21980996650231L107.80615955352783,84.94065593999423L107.92283288637798,87.2678807557792L108.0395062192281,88.91625987078143L108.38952621777852,96.71483833792239L108.50619955062866,100.11698789857834L109.2062395477295,111.90959707242699L109.43958621342976,115.3445446562858L109.5562595462799,116.92743255276311L109.67293287913004,118.20614269789417L109.78960621198019,120.10416613513179L110.02295287768047,122.23398039615736L110.37297287623088,127.05946981872488L110.48964620908102,128.0406424035836L110.83966620763142,132.08444669843996L110.95633954048157,132.7637575729437L111.0730128733317,133.56841638590473L111.30635953903199,135.54259727853787L111.53970620473225,137.23420479088182L111.88972620328268,139.55732657789514L112.00639953613282,140.75284597200374L112.23974620183309,141.37604280950654L112.58976620038351,143.38799122206638L112.70643953323365,144.04012055466782L112.82311286608378,144.40842512415307L113.05645953178406,145.489560920961L113.1731328646342,145.66500675882315L113.28980619748434,146.42597691452838L113.5231528631846,147.39273566577816L113.63982619603475,147.61281688769452L113.75649952888489,148.20017405551584L114.33986619313558,149.76101533831402L114.80655952453613,151.0320320997563L114.92323285738627,151.31783630809028L115.15657952308655,151.97076003947583L115.38992618878683,152.32821819917038L115.6232728544871,152.77107504712654L115.73994618733724,152.5919872593747L115.85661952018738,153.242314862775L115.97329285303752,153.30045256925592L116.08996618588766,153.4820128208524L116.20663951873779,153.91963482651153L116.43998618443807,154.15471053022023L116.67333285013835,-79.85282164225913L117.49004618008931,-6.791903224408202L117.60671951293945,1.9919000803583344L117.72339284578959,7.769803213863469L118.19008617719014,32.19873531185945L118.42343284289042,42.036805717238366L118.54010617574056,48.133189056075366L118.77345284144084,58.058083153720446L119.12347283999125,70.68948899508436L119.35681950569153,79.84853025088918L119.47349283854167,84.15804374071234L119.5901661713918,88.59375034378166L119.94018616994222,100.08710540081L120.29020616849263,110.69382296622656L120.40687950134277,112.87464254300009L120.64022616704305,119.01498152260177L120.87357283274332,123.53762319756059L121.1069194984436,128.18811885250187L121.69028616269429,135.74116421585725L121.92363282839457,138.3858586306858L122.04030616124471,139.84372289996202L122.15697949409486,139.97734241338807L122.27365282694498,141.35983379843904L122.6236728254954,143.67470202777562L123.32371282259624,147.80319250889136L123.5570594882965,148.63693450702965L123.67373282114664,149.17013497093672L123.79040615399678,149.51971957402236L123.90707948684692,150.46204360143375L124.02375281969707,150.1651612154164L124.49044615109761,151.91738544982843L124.7237928167979,152.6419606756711L124.84046614964804,152.80129086479707L125.19048614819845,153.43196160261323L125.30715948104859,153.73119688317368L125.42383281389873,153.9627280941631L125.54050614674885,154.15569820540958L125.657179479599,154.16377240913403L125.89052614529928,154.78431087709734L126.00719947814942,154.93665199485864L126.12387281099956,155.2169404549337L126.24054614384968,155.3215562230609L126.47389280954997,155.59031443521667L126.82391280810039,156.0512549115773L127.05725947380066,156.29470210432865L127.1739328066508,156.29850948571774L127.40727947235108,156.79665157524232L127.52395280520122,156.88815566859228L127.87397280375163,157.23292064606497L127.99064613660177,157.3511411075962L128.22399280230206,157.38652379323483L128.34066613515216,-124.8492984353295L129.15737946510313,94.75752490648294L129.2740527979533,103.66214889560507L129.39072613080344,112.33123446420092L129.50739946365357,117.94029919220512L129.6240727965037,122.5626747681239L129.74074612935382,127.06946777785544L129.85741946220398,130.455421430929L130.09076612790426,136.03590418206093L130.20743946075441,138.69564631159005L130.3241127936045,141.3140256524685L130.67413279215495,145.9514636845086L130.7908061250051,147.51634739245983L130.90747945785523,148.85057536601983L131.02415279070536,149.86682434255303L131.25749945640564,151.3781254430309L131.95753945350648,154.631563551298L132.0742127863566,155.07709596711783L132.19088611920677,155.377755432715L132.42423278490702,155.81990387350797L132.89092611630758,157.18947112741222L133.240946114858,157.8096214046295L133.59096611340843,158.4396250931573L134.05765944480896,158.80299046772805L134.40767944335937,159.27022921609833L134.5243527762095,159.32440598472414L134.64102610905965,159.5643205597896L134.87437277475993,159.74408358650794L134.99104610761006,159.79693198933188L135.1077194404602,159.90174103386425L135.45773943901062,160.2392180167184L135.57441277186078,160.17755874861712L135.80775943756103,160.54242570068342L136.0411061032613,160.38239488458856L136.15777943611147,160.52333310392632L136.39112610181172,160.72773150159867L136.624472767512,160.80730528124988L136.74114610036216,160.9214006018784L136.97449276606244,160.9122740245069L137.2078394317627,161.10683416177335L137.32451276461285,161.1755557988591L137.44118609746297,161.16859539136806L137.55785943031313,161.14743776725612L137.9078794288635,161.35267274055528L138.02455276171366,161.42653995244586L138.14122609456382,161.40064009517982L138.4912460931142,161.58643338668912L138.60791942596435,161.59510482269536L139.54130608876548,161.82470265540684L139.89132608731586,161.88887328832413L140.00799942016602,-79.67309424064086L140.5913660844167,-10.592647698291444L140.9413860829671,13.974237890827055L141.05805941581727,22.022332921223665L141.29140608151755,35.41533952351318L141.40807941436768,41.753757335614296L141.5247527472178,47.26854248833101L141.64142608006796,52.8453464360214L141.99144607861837,66.78280939591804L142.92483274141946,92.95466225390572L143.04150607426962,94.8052084887583L143.15817940711975,97.3970843930883L143.39152607282003,102.59211830241856L143.6248727385203,106.88117070025957L143.74154607137044,108.36943833083681L143.8582194042206,109.93418445219451L144.09156606992084,114.22209684683192L144.32491273562113,117.2564184772731L144.44158606847128,118.02907202787975L144.5582594013214,120.13209948949164L144.90827939987182,124.32494282386432L145.02495273272197,125.29559331018854L145.1416260655721,126.43626479154389L145.7249927298228,132.03927243356108L145.95833939552307,133.80848533640398L146.0750127283732,134.6714644856695L146.30835939407348,135.97243417611253L146.42503272692363,136.8096977358712L146.6583793926239,138.46603394219983L147.35841938972473,141.85771709413294L147.47509272257486,142.78488038928475L147.70843938827514,143.7147528299808L147.94178605397542,144.55906770265838L148.40847938537598,146.33541217726645L148.64182605107627,147.111390737217L148.87517271677652,147.83821812456105L149.1085193824768,148.1403533701675L149.34186604817708,149.20350954748392L149.57521271387736,149.4823861070396L149.6918860467275,150.09168669859486L149.80855937957764,150.10242500463352L149.92523271242777,150.38566011092024L150.04190604527793,150.80602810257523L150.50859937667846,151.57198085848935L150.74194604237874,151.98126903452527L150.85861937522887,152.10981094747544L151.5586593723297,153.3708567757252L151.79200603803,-42.2965429988713L152.25869936943053,-14.539102926475891L152.95873936653138,16.56114102256197L153.30875936508178,28.622885952730797L153.54210603078207,33.77864871721928L153.89212602933247,42.84892041322075L154.24214602788288,50.90635822849296L154.35881936073304,52.997019276042636L154.59216602643332,57.857612935190446L154.70883935928344,59.28366521851751L154.82551269213357,61.759988039501735L154.94218602498373,63.941325203936685L155.175532690684,68.28660465633763L155.29220602353413,70.64058023695225L155.52555268923442,74.30704019554065L155.64222602208454,75.38987289366892L155.7588993549347,77.0857324869275L156.1089193534851,82.4225461050292L156.22559268633523,83.55298376452222L156.45893935203551,86.57770709212838L157.39232601483664,99.98397442133812L157.50899934768677,99.40065312692731L157.6256726805369,101.92631712105192L157.74234601338705,102.99766461449089L158.09236601193746,107.07759849363653L158.20903934478758,107.64727906005926L158.32571267763774,108.5291763659365L158.67573267618815,112.24483008345793L158.7924060090383,112.85944905202777L158.90907934188843,114.74807401457812L159.25909934043884,117.58192870236056L160.6591793346405,128.41565431950391L161.0091993331909,130.57578676917737L161.2425459988912,132.35278641804038L161.35921933174134,132.82457084728827L161.5925659974416,133.69796399133625L161.70923933029175,134.75234247157198L162.05925932884216,136.13186100344112L162.40927932739257,137.89463681922913L162.52595266024272,138.5917831748883L162.64262599309285,139.15248785401818L162.759299325943,139.13427400973052L162.87597265879313,140.12315471969876L162.99264599164326,140.72214450641673L163.1093193244934,141.05718424104248L163.22599265734354,141.4489014625284L163.45933932304382,-55.241646273505864L164.0427059872945,-9.117601484179147L164.2760526529948,2.541709211628387L164.50939931869507,15.663984708286932L164.6260726515452,17.04074168067143L164.74274598439536,25.434886649048224L164.85941931724548,27.72364618432499L164.9760926500956,34.97034516955026L165.09276598294576,38.10763398589958L165.55945931434633,53.23501787589626L166.14282597859702,68.39790565876876L166.25949931144714,70.81289761774698L166.49284597714743,76.99449292018295L166.60951930999755,78.62284335821136L167.07621264139812,87.94144575206701L167.19288597424824,90.73957706359823L167.3095593070984,92.60408506182382L167.54290597279868,95.6782347352235L167.8929259713491,101.38858285130063L168.2429459698995,105.97991954689108L168.47629263559978,109.54484059944714L168.70963930130006,112.71706330707048L168.82631263415018,113.16224438569608L169.05965929985047,116.53093092128039L169.1763326327006,116.84210593366953L169.52635263125103,121.9208627921023L169.64302596410116,122.47454727909039L169.75969929695128,123.87786829164192L169.99304596265156,125.51293098991226L170.10971929550172,127.6227001946076L170.22639262835185,128.0370782556367L170.45973929405213,129.28176847757936L170.57641262690225,130.12051600702551L170.6930859597524,130.7184804460345L170.80975929260254,132.21127860658473L170.9264326254527,133.5758558895697L171.04310595830282,134.15358854758577L171.6264726225535,138.08239174340616L171.74314595540363,138.29023431024L171.97649262110392,139.55662226557106L172.44318595250448,141.9486077805867L172.5598592853546,142.37405009684625L172.7932059510549,143.07876699102135L173.25989928245545,145.2802130912764L173.49324594815573,145.46085118510905L173.72659261385598,146.64863624713794L173.95993927955627,147.09663948886674L174.07661261240642,147.74102793764592L174.19328594525655,147.97427652415115L174.3099592781067,148.3198334435045L174.54330594380696,149.11650240642638L174.8933259423574,150.0753073422211L175.00999927520752,-99.68345254233452L175.2433459409078,31.681671789851862L175.36001927375793,50.27083920119017L175.47669260660808,63.35747321837937L175.71003927230834,85.66572418446378L176.1767326037089,118.14035992682578L176.41007926940918,128.61901385649827L176.5267526022593,134.12660847176687L176.7600992679596,139.98815115065912L176.87677260080974,142.59701572342001L177.22679259936015,149.1919964978888L177.34346593221028,150.38742252966608L177.92683259646097,155.21059918711362L178.04350592931112,155.33334608377874L178.16017926216125,156.1308331955515L178.2768525950114,156.48921678888115L178.51019926071166,157.12902311271478L178.74354592641194,157.89543940441428L178.8602192592621,158.15671225070724L178.97689259211222,158.36469895587717L179.09356592496235,158.56716295156178L179.2102392578125,158.89013601434695L179.32691259066263,159.12595083651203L179.67693258921307,159.75636237101355L180.02695258776347,160.04633430657682L180.26029925346376,160.1582634573249L180.493645919164,160.450169385392L180.61031925201416,160.5849559279597L180.7269925848643,160.80073634037618L180.84366591771445,160.58084634744552L180.96033925056457,160.95407045661761L181.42703258196514,161.15775635228772L181.89372591336567,161.2317947284524L182.12707257906595,161.44545524267022L182.2437459119161,161.54474567255636L182.59376591046652,161.81107810203315L182.71043924331664,161.75347477205392L182.8271125761668,161.74871145047848L183.1771325747172,161.95487308586448L183.5271525732676,162.0837814869135L183.64382590611777,162.1025819169013L183.7604992389679,162.13295538587693L183.99384590466818,162.2291118306629L184.1105192375183,162.1873872629783L184.22719257036846,162.3245567971564L184.57721256891887,162.35910556881365L184.81055923461915,162.42505008602623L184.92723256746928,162.49488408615173L185.04390590031943,162.48998706807987L185.16057923316956,162.48053003719355L185.27725256601968,162.54240571754093L185.39392589886984,162.607142052479L185.62727256457012,162.61381704968522L185.74394589742025,162.64276920001151L186.09396589597065,162.72169476663424L186.67733256022134,-95.01895253769362L188.077412554423,116.52851332827962L188.19408588727316,120.34641681590004L188.3107592201233,124.09460321105108L188.42743255297344,127.92857812314546L188.89412588437398,139.26044255394214L189.24414588292439,143.4822413145124L189.36081921577454,144.8369909836731L189.59416588147482,147.62916839916247L189.71083921432495,148.4973676493043L189.82751254717508,148.96638396732504L189.94418588002523,150.37538370273134L190.1775325457255,151.42457811667475L190.4108792114258,152.66767135137104L190.52755254427592,152.9247690997243L190.64422587712605,153.69898278402553L190.87757254282633,154.51720452303186L190.99424587567648,154.82416430805822L191.1109192085266,155.24152586885077L191.3442658742269,155.72923840320436L191.57761253992717,156.2677506923834L192.277652537028,157.56993982590848L192.51099920272827,157.75943997050712L193.09436586697896,158.45316017429678L193.2110391998291,158.77950288017195L193.67773253122965,159.17921036118094L194.26109919548034,159.69787783166143L194.3777725283305,159.718183319758L194.84446585973103,159.89714867182096L195.3111591911316,160.24671894296978L195.661179189682,160.59738663099566L196.0111991882324,160.73227063073375L196.12787252108257,160.57821459436013L196.2445458539327,160.94561174750228L196.5945658524831,160.93737088382673L196.71123918533326,160.94638444363923L197.06125918388366,161.11303866196772L197.29460584958395,161.03350910657875L197.41127918243407,161.25376681606L197.52795251528423,161.2572249076744L198.3446658452352,-67.54183532202171L198.46133917808532,-27.51587732459484L198.57801251093545,1.7527876842712828L198.6946858437856,16.815767945006257L198.9280325094859,39.76660071686183L199.04470584233601,48.11053313033915L199.16137917518617,55.747905972049324L199.2780525080363,59.82514708500713L199.39472584088642,66.92253185752895L199.51139917373658,71.53301929659165L199.6280725065867,78.09261738542179L199.74474583943686,80.4925468882787L199.861419172287,85.53123001340737L200.2114391708374,96.28692437678602L200.44478583653768,101.85291139752718L201.02815250078837,113.66434700359186L201.14482583363852,114.04787618482653L201.26149916648865,115.68758406856449L201.49484583218893,120.13054345063613L202.3115591621399,129.73209594997763L202.54490582784018,130.97695979309788L203.12827249209087,136.17703526832L203.244945824941,137.5565783692237L203.71163915634156,139.79867966993413L203.94498582204184,141.3135784960395L204.06165915489197,141.36922408344813L204.29500582059225,142.80790321260375L204.41167915344238,143.57214104990555L204.64502581914266,144.41811678931944L204.7616991519928,144.58903537307987L205.46173914909363,147.5867212971198L205.57841248194376,147.38951057050818L205.6950858147939,148.19021376890493L206.2784524790446,149.86808719092943L206.39512581189473,149.82060343680183L207.44518580754598,151.93955245177688L207.5618591403961,152.09272400290632L207.91187913894655,152.86182241421204L208.02855247179667,152.55615004659666L208.1452258046468,153.06822277871714L208.37857247034708,153.46427561583522L208.61191913604736,153.71280040906248L208.84526580174764,154.06047108435584L209.19528580029805,154.87521958084312L209.3119591331482,154.75427113750783L209.54530579884846,154.75167746642603L209.66197913169862,155.07800584036437L209.8953257973989,155.03906883439262L210.12867246309915,-12.379661685641395L210.2453457959493,0.7999415583253722L210.4786924616496,15.201366166865796L210.5953657944997,29.955471076846493L211.06205912590028,68.9006077611078L211.1787324587504,75.77998985203715L211.41207912445068,87.52606527442788L211.5287524573008,91.64639719813383L211.64542579015097,95.93317614131016L211.7620991230011,100.18874913472315L211.99544578870137,105.26938961913892L212.1121191215515,108.23461002091038L212.22879245440166,111.73460330480076L212.34546578725178,114.28018787214718L212.81215911865235,122.57541463151142L213.04550578435263,126.77068211062743L213.16217911720275,128.4895219408784L213.2788524500529,130.10368785628708L213.51219911575316,131.79186880727764L213.74554578145344,134.98915193015284L213.97889244715373,137.70030394553237L214.212239112854,138.89228376072862L214.32891244570413,139.96281556222016L214.4455857785543,140.97463719872553L214.67893244425457,142.98325568813456L214.7956057771047,143.17494820958385L214.91227910995482,144.00108527255782L215.02895244280498,144.5530728582256L215.1456257756551,145.0385340500456L215.26229910850526,145.91363556096334L215.4956457742055,146.76522941961343L215.61231910705567,147.27332033019945L215.96233910560608,149.07314133629808L216.0790124384562,148.8849114107862L216.31235910415649,150.21014711769698L216.42903243700664,150.82728686921274L216.77905243555705,151.07748481369356L216.89572576840717,151.4376152653805L217.01239910125733,152.29650940316637L217.12907243410746,152.84723168355424L217.2457457669576,152.62754602309434L217.47909243265786,153.32342297863454L217.94578576405843,154.26967887054343L218.1791324297587,154.34052777653824L218.29580576260884,155.01869864783836L218.412479095459,154.68789051993178L218.7624990940094,155.6350783972184L218.87917242685953,155.49748443296824L219.1125190925598,155.98812559624145L219.57921242396037,156.51572022542956L219.6958857568105,156.8162814148885L219.81255908966065,156.698504833915L219.92923242251078,156.81124066796446L220.16257908821106,157.32878738098506L220.62927241961162,157.920685725361L220.74594575246175,157.69928105144967L220.97929241816203,157.6242341164163L221.09596575101216,157.97786114465498L221.2126390838623,158.29987478664054L221.32931241671244,158.3721151189593L221.56265908241272,158.36872377322211L221.91267908096313,-45.816492890567474L222.1460257466634,-1.153984622215944L222.26269907951354,18.34096119659256L222.3793724123637,22.612107682045746L222.7293924109141,58.04845864391521L222.84606574376423,66.5513428833863L223.3127590751648,91.03062512287526L223.42943240801495,93.78122354220977L223.6627790737152,100.33811576136696L223.77945240656535,104.96937877605416L223.89612573941548,108.53435879429315L224.36281907081604,119.36789441090258L224.71283906936645,124.38462919849039L224.94618573506673,128.22297084699403L225.29620573361714,132.37154733283091L225.4128790664673,133.68238067168224L225.52955239931742,134.7469798702952L225.64622573216755,135.2187544719293L225.7628990650177,136.74343996346798L225.996245730718,138.42947849464483L226.1129190635681,138.9718006221164L226.22959239641824,139.21255259177647L226.57961239496868,141.5453283714365L226.6962857278188,143.24267521025382L226.92963239351909,143.77131893721764L227.0463057263692,144.79661095640483L227.16297905921937,145.63636090246104L227.51299905776978,147.06114214773348L227.74634572347006,147.9016144234058L227.86301905632018,147.55287335717338L227.97969238917034,148.80052496674847L228.09636572202047,149.37601037707006L228.91307905197144,151.29888293586237L229.02975238482156,151.43107171250915L229.379772383372,152.24607654592367L229.9631390476227,153.5588688557973L230.42983237902322,154.10205745122107L230.6631790447235,154.4844408964774L230.8965257104238,154.6727158652193L231.12987237612407,155.05000287373994L231.2465457089742,155.14926914407545L231.36321904182435,155.4081506043378L231.47989237467448,155.43501274879083L231.94658570607504,155.78980271133207L232.06325903892517,155.96792002221878L232.17993237177532,156.17630228884514L232.41327903747558,156.594791568324L232.52995237032573,156.58361920934146L232.64662570317586,156.79240440813462L233.11331903457642,157.36448291233046L233.3466657002767,-86.49264581860803L233.58001236597696,39.031311754015064L233.81335903167724,57.72779015657184L233.9300323645274,65.80782493189733L234.16337903022767,85.3254725386399L234.6300723616282,112.06967907401052L234.8634190273285,123.49913826182475L234.98009236017862,127.6555604593647L235.33011235872905,138.0945190188653L235.68013235727946,144.46846201700555L236.14682568868002,149.59184443187868L236.38017235438028,151.38534955815953L236.49684568723043,151.93324066679824L236.84686568578084,153.61647750906735L237.3135590171814,155.58217798993797L237.43023235003153,156.34540112611242L237.5469056828817,155.95960176608435L237.6635790157318,156.89949427804203L238.01359901428222,157.20769807518496L238.13027234713238,157.47833745642026L238.2469456799825,158.05730921274602L238.48029234568278,158.40278177841404L238.5969656785329,158.60344609231709L238.71363901138307,158.82624137358454L238.94698567708335,158.95125107833272L239.06365900993347,159.11562119541492L239.41367900848388,159.69646920701328L239.53035234133404,159.77934015110253L239.7636990070343,159.82340594303884L239.99704567273457,160.17041202594734L240.11371900558473,160.18202662755198L240.23039233843485,160.26336978717546L241.04710566838583,160.82045749493412L241.16377900123595,161.17831694885982L241.2804523340861,161.15832307801824L241.39712566693623,160.87000095312573L242.09716566403708,161.479391835883L242.2138389968872,161.59889869111544L242.33051232973733,161.67193301273443L242.4471856625875,161.72304418007295L242.5638589954376,161.62514394805902L242.7972056611379,161.71900318811356L243.1472256596883,162.03375811358015L243.49724565823874,161.94237707014494L243.96393898963927,162.15860873382954L244.08061232248943,162.22101817645276L244.19728565533956,162.30244016172878L244.3139589881897,162.3038344544401L244.43063232103984,162.35537762730297L244.66397898674012,162.30714574607302L244.78065231959025,162.3100254416655L245.2473456509908,-26.5874429913884L245.59736564954122,57.89820753202724L245.71403898239134,79.98264442087773L246.06405898094178,112.66040056163101L246.1807323137919,125.77176413107334L246.29740564664206,133.6173447992645L246.4140789794922,136.63048792191438L246.53075231234232,139.22534650704003L246.7640989780426,147.19309751855195L246.88077231089275,148.8305532407885L246.99744564374288,150.2382508173631L247.114118976593,151.59745239558623L247.23079230944316,152.87152554492786L247.69748564084372,156.2313533056174L247.81415897369385,156.913831128676L247.93083230654398,157.1976427883071L248.2808523050944,158.34132889020304L248.51419897079467,158.81421319323147L248.63087230364482,159.24325364460242L248.74754563649495,159.33673513575062L248.98089230219523,159.34512259466572L249.09756563504536,159.56743837027534L249.2142389678955,159.6579785385027L249.4475856335958,160.05935753282964L249.56425896644592,160.2245114021143L249.91427896499633,160.5844518532673L250.1476256306966,160.76494744669947L250.3809722963969,160.82760339863609L250.49764562924702,160.97411633191567L250.7309922949473,161.10498452295485L251.0810122934977,161.09223360350177L251.314358959198,161.30563491440495L251.43103229204814,161.32310554539714L251.54770562489827,161.49528902495354L251.78105229059855,161.438920288961L252.01439895629883,161.5990340255475L252.13107228914896,161.6253521706269L252.24774562199912,161.7701550991011L252.71443895339965,161.83980933579036L252.8311122862498,161.9434771486674L253.0644589519501,162.0681046001862L253.29780561765034,162.0096605997411L253.88117228190103,162.29949392500106L254.3478656133016,162.25627494578927L254.46453894615172,162.38046813962222L254.58121227900187,162.38865515616368L254.697885611852,162.41749736006034L256.09796560605366,162.7214722121295L256.3313122717539,162.70907529151606L256.5646589374542,162.6909142706527" fill="none"></path></g></g></g></g></g></g><g transform="translate(49, 178)" clip-path="url(#clip_1)"><clipPath id="clip_1"><rect width="280" height="21"></rect></clipPath><g><g><line x1="0" y1="0" x2="0" y2="5" style="visibility: inherit;" fill="rgb(0, 0, 0)" stroke="rgb(204, 204, 204)" stroke-width="1px"></line><line x1="23.334666570027668" y1="0" x2="23.334666570027668" y2="5" style="visibility: inherit;" fill="rgb(0, 0, 0)" stroke="rgb(204, 204, 204)" stroke-width="1px"></line><line x1="46.669333140055336" y1="0" x2="46.669333140055336" y2="5" style="visibility: inherit;" fill="rgb(0, 0, 0)" stroke="rgb(204, 204, 204)" stroke-width="1px"></line><line x1="70.00399971008301" y1="0" x2="70.00399971008301" y2="5" style="visibility: inherit;" fill="rgb(0, 0, 0)" stroke="rgb(204, 204, 204)" stroke-width="1px"></line><line x1="93.33866628011067" y1="0" x2="93.33866628011067" y2="5" style="visibility: inherit;" fill="rgb(0, 0, 0)" stroke="rgb(204, 204, 204)" stroke-width="1px"></line><line x1="116.67333285013835" y1="0" x2="116.67333285013835" y2="5" style="visibility: inherit;" fill="rgb(0, 0, 0)" stroke="rgb(204, 204, 204)" stroke-width="1px"></line><line x1="140.00799942016602" y1="0" x2="140.00799942016602" y2="5" style="visibility: inherit;" fill="rgb(0, 0, 0)" stroke="rgb(204, 204, 204)" stroke-width="1px"></line><line x1="163.3426659901937" y1="0" x2="163.3426659901937" y2="5" style="visibility: inherit;" fill="rgb(0, 0, 0)" stroke="rgb(204, 204, 204)" stroke-width="1px"></line><line x1="186.67733256022134" y1="0" x2="186.67733256022134" y2="5" style="visibility: inherit;" fill="rgb(0, 0, 0)" stroke="rgb(204, 204, 204)" stroke-width="1px"></line><line x1="210.01199913024902" y1="0" x2="210.01199913024902" y2="5" style="visibility: inherit;" fill="rgb(0, 0, 0)" stroke="rgb(204, 204, 204)" stroke-width="1px"></line><line x1="233.3466657002767" y1="0" x2="233.3466657002767" y2="5" style="visibility: inherit;" fill="rgb(0, 0, 0)" stroke="rgb(204, 204, 204)" stroke-width="1px"></line><line x1="256.6813322703043" y1="0" x2="256.6813322703043" y2="5" style="visibility: inherit;" fill="rgb(0, 0, 0)" stroke="rgb(204, 204, 204)" stroke-width="1px"></line><line x1="280.01599884033203" y1="0" x2="280.01599884033203" y2="5" style="visibility: inherit;" fill="rgb(0, 0, 0)" stroke="rgb(204, 204, 204)" stroke-width="1px"></line></g><g transform="translate(0, 8)"><text style="text-anchor: middle; visibility: hidden; font-family: &quot;Helvetica Neue&quot;, sans-serif; font-size: 12px; font-weight: 200;" x="0" y="0" dx="0em" dy="0.95em" fill="rgb(50, 49, 63)" stroke="none" stroke-width="1px">-200</text><text style="text-anchor: middle; visibility: inherit; font-family: &quot;Helvetica Neue&quot;, sans-serif; font-size: 12px; font-weight: 200;" x="23.334666570027668" y="0" dx="0em" dy="0.95em" fill="rgb(50, 49, 63)" stroke="none" stroke-width="1px">0</text><text style="text-anchor: middle; visibility: hidden; font-family: &quot;Helvetica Neue&quot;, sans-serif; font-size: 12px; font-weight: 200;" x="46.669333140055336" y="0" dx="0em" dy="0.95em" fill="rgb(50, 49, 63)" stroke="none" stroke-width="1px">200</text><text style="text-anchor: middle; visibility: inherit; font-family: &quot;Helvetica Neue&quot;, sans-serif; font-size: 12px; font-weight: 200;" x="70.00399971008301" y="0" dx="0em" dy="0.95em" fill="rgb(50, 49, 63)" stroke="none" stroke-width="1px">400</text><text style="text-anchor: middle; visibility: hidden; font-family: &quot;Helvetica Neue&quot;, sans-serif; font-size: 12px; font-weight: 200;" x="93.33866628011067" y="0" dx="0em" dy="0.95em" fill="rgb(50, 49, 63)" stroke="none" stroke-width="1px">600</text><text style="text-anchor: middle; visibility: inherit; font-family: &quot;Helvetica Neue&quot;, sans-serif; font-size: 12px; font-weight: 200;" x="116.67333285013835" y="0" dx="0em" dy="0.95em" fill="rgb(50, 49, 63)" stroke="none" stroke-width="1px">800</text><text style="text-anchor: middle; visibility: hidden; font-family: &quot;Helvetica Neue&quot;, sans-serif; font-size: 12px; font-weight: 200;" x="140.00799942016602" y="0" dx="0em" dy="0.95em" fill="rgb(50, 49, 63)" stroke="none" stroke-width="1px">1k</text><text style="text-anchor: middle; visibility: inherit; font-family: &quot;Helvetica Neue&quot;, sans-serif; font-size: 12px; font-weight: 200;" x="163.3426659901937" y="0" dx="0em" dy="0.95em" fill="rgb(50, 49, 63)" stroke="none" stroke-width="1px">1.2k</text><text style="text-anchor: middle; visibility: hidden; font-family: &quot;Helvetica Neue&quot;, sans-serif; font-size: 12px; font-weight: 200;" x="186.67733256022134" y="0" dx="0em" dy="0.95em" fill="rgb(50, 49, 63)" stroke="none" stroke-width="1px">1.4k</text><text style="text-anchor: middle; visibility: inherit; font-family: &quot;Helvetica Neue&quot;, sans-serif; font-size: 12px; font-weight: 200;" x="210.01199913024902" y="0" dx="0em" dy="0.95em" fill="rgb(50, 49, 63)" stroke="none" stroke-width="1px">1.6k</text><text style="text-anchor: middle; visibility: hidden; font-family: &quot;Helvetica Neue&quot;, sans-serif; font-size: 12px; font-weight: 200;" x="233.3466657002767" y="0" dx="0em" dy="0.95em" fill="rgb(50, 49, 63)" stroke="none" stroke-width="1px">1.8k</text><text style="text-anchor: middle; visibility: inherit; font-family: &quot;Helvetica Neue&quot;, sans-serif; font-size: 12px; font-weight: 200;" x="256.6813322703043" y="0" dx="0em" dy="0.95em" fill="rgb(50, 49, 63)" stroke="none" stroke-width="1px">2k</text><text style="text-anchor: middle; visibility: hidden; font-family: &quot;Helvetica Neue&quot;, sans-serif; font-size: 12px; font-weight: 200;" x="280.01599884033203" y="0" dx="0em" dy="0.95em" fill="rgb(50, 49, 63)" stroke="none" stroke-width="1px">2.2k</text></g><line x1="0" y1="0" x2="280.01599884033203" y2="0" fill="rgb(0, 0, 0)" stroke="rgb(204, 204, 204)" stroke-width="1px"></line></g></g></g></g></svg>